%TF.GenerationSoftware,KiCad,Pcbnew,8.0.5*%
%TF.CreationDate,2025-08-25T13:08:50+09:00*%
%TF.ProjectId,TangConsoleDCJ11MEM,54616e67-436f-46e7-936f-6c6544434a31,rev?*%
%TF.SameCoordinates,Original*%
%TF.FileFunction,Soldermask,Top*%
%TF.FilePolarity,Negative*%
%FSLAX46Y46*%
G04 Gerber Fmt 4.6, Leading zero omitted, Abs format (unit mm)*
G04 Created by KiCad (PCBNEW 8.0.5) date 2025-08-25 13:08:50*
%MOMM*%
%LPD*%
G01*
G04 APERTURE LIST*
G04 Aperture macros list*
%AMRoundRect*
0 Rectangle with rounded corners*
0 $1 Rounding radius*
0 $2 $3 $4 $5 $6 $7 $8 $9 X,Y pos of 4 corners*
0 Add a 4 corners polygon primitive as box body*
4,1,4,$2,$3,$4,$5,$6,$7,$8,$9,$2,$3,0*
0 Add four circle primitives for the rounded corners*
1,1,$1+$1,$2,$3*
1,1,$1+$1,$4,$5*
1,1,$1+$1,$6,$7*
1,1,$1+$1,$8,$9*
0 Add four rect primitives between the rounded corners*
20,1,$1+$1,$2,$3,$4,$5,0*
20,1,$1+$1,$4,$5,$6,$7,0*
20,1,$1+$1,$6,$7,$8,$9,0*
20,1,$1+$1,$8,$9,$2,$3,0*%
G04 Aperture macros list end*
%ADD10C,1.600000*%
%ADD11R,0.558800X1.981200*%
%ADD12C,3.000000*%
%ADD13C,2.000000*%
%ADD14O,1.600000X1.600000*%
%ADD15R,1.700000X1.700000*%
%ADD16O,1.700000X1.700000*%
%ADD17C,1.500000*%
%ADD18RoundRect,0.162500X-0.617500X-0.162500X0.617500X-0.162500X0.617500X0.162500X-0.617500X0.162500X0*%
%ADD19C,1.800000*%
%ADD20R,1.800000X1.800000*%
%ADD21R,1.600000X2.400000*%
%ADD22O,1.600000X2.400000*%
%ADD23R,1.600000X1.600000*%
G04 APERTURE END LIST*
D10*
%TO.C,C8*%
X63500000Y-21590000D03*
X63500000Y-24090000D03*
%TD*%
%TO.C,C6*%
X27940000Y-21590000D03*
X27940000Y-24090000D03*
%TD*%
%TO.C,C7*%
X10160000Y-21590000D03*
X10160000Y-24090000D03*
%TD*%
%TO.C,C5*%
X45720000Y-21590000D03*
X45720000Y-24090000D03*
%TD*%
D11*
%TO.C,U5*%
X66040000Y-27546300D03*
X67310000Y-27546300D03*
X68580000Y-27546300D03*
X69850000Y-27546300D03*
X71120000Y-27546300D03*
X72390000Y-27546300D03*
X73660000Y-27546300D03*
X74930000Y-27546300D03*
X76200000Y-27546300D03*
X77470000Y-27546300D03*
X77470000Y-18173700D03*
X76200000Y-18173700D03*
X74930000Y-18173700D03*
X73660000Y-18173700D03*
X72390000Y-18173700D03*
X71120000Y-18173700D03*
X69850000Y-18173700D03*
X68580000Y-18173700D03*
X67310000Y-18173700D03*
X66040000Y-18173700D03*
%TD*%
D12*
%TO.C,REF\u002A\u002A*%
X93980000Y-93980000D03*
%TD*%
D13*
%TO.C,SW1*%
X94130000Y-73080000D03*
X87630000Y-73080000D03*
X94130000Y-68580000D03*
X87630000Y-68580000D03*
%TD*%
D10*
%TO.C,R8*%
X40640000Y-78740000D03*
D14*
X40640000Y-71120000D03*
%TD*%
D15*
%TO.C,J5*%
X88900000Y-20320000D03*
D16*
X91440000Y-20320000D03*
X88900000Y-22860000D03*
X91440000Y-22860000D03*
X88900000Y-25400000D03*
X91440000Y-25400000D03*
%TD*%
D15*
%TO.C,J2*%
X7620000Y-83820000D03*
D16*
X10160000Y-83820000D03*
X12700000Y-83820000D03*
X15240000Y-83820000D03*
X17780000Y-83820000D03*
X20320000Y-83820000D03*
X22860000Y-83820000D03*
X25400000Y-83820000D03*
X27940000Y-83820000D03*
X30480000Y-83820000D03*
X33020000Y-83820000D03*
X35560000Y-83820000D03*
X38100000Y-83820000D03*
X40640000Y-83820000D03*
X43180000Y-83820000D03*
X45720000Y-83820000D03*
X48260000Y-83820000D03*
X50800000Y-83820000D03*
X53340000Y-83820000D03*
X55880000Y-83820000D03*
X58420000Y-83820000D03*
X60960000Y-83820000D03*
X63500000Y-83820000D03*
X66040000Y-83820000D03*
X68580000Y-83820000D03*
X71120000Y-83820000D03*
X73660000Y-83820000D03*
X76200000Y-83820000D03*
X78740000Y-83820000D03*
X81280000Y-83820000D03*
%TD*%
D10*
%TO.C,R11*%
X78740000Y-38100000D03*
D14*
X78740000Y-30480000D03*
%TD*%
D10*
%TO.C,R12*%
X95250000Y-58420000D03*
D14*
X87630000Y-58420000D03*
%TD*%
D10*
%TO.C,R10*%
X76200000Y-78740000D03*
D14*
X76200000Y-71120000D03*
%TD*%
D17*
%TO.C,Y1*%
X69650000Y-37465000D03*
X64770000Y-37465000D03*
%TD*%
D18*
%TO.C,U6*%
X5080000Y-27310000D03*
X5080000Y-28260000D03*
X5080000Y-29210000D03*
X7780000Y-29210000D03*
X7780000Y-27310000D03*
%TD*%
D19*
%TO.C,D1*%
X87630000Y-53340000D03*
D20*
X90170000Y-53340000D03*
%TD*%
D10*
%TO.C,C1*%
X59690000Y-38100000D03*
X59690000Y-35600000D03*
%TD*%
%TO.C,R3*%
X81280000Y-50800000D03*
D14*
X81280000Y-58420000D03*
%TD*%
D10*
%TO.C,C2*%
X74930000Y-38100000D03*
X74930000Y-35600000D03*
%TD*%
%TO.C,R2*%
X53340000Y-50800000D03*
D14*
X53340000Y-58420000D03*
%TD*%
D10*
%TO.C,R13*%
X95250000Y-60960000D03*
D14*
X87630000Y-60960000D03*
%TD*%
D10*
%TO.C,R5*%
X20320000Y-78740000D03*
D14*
X20320000Y-71120000D03*
%TD*%
D10*
%TO.C,C10*%
X45720000Y-86360000D03*
X43220000Y-86360000D03*
%TD*%
D13*
%TO.C,SW2*%
X87630000Y-81280000D03*
X94130000Y-81280000D03*
X87630000Y-85780000D03*
X94130000Y-85780000D03*
%TD*%
D12*
%TO.C,REF\u002A\u002A*%
X5080000Y-13970000D03*
%TD*%
D10*
%TO.C,R7*%
X38100000Y-78740000D03*
D14*
X38100000Y-71120000D03*
%TD*%
D10*
%TO.C,R9*%
X73660000Y-78740000D03*
D14*
X73660000Y-71120000D03*
%TD*%
D10*
%TO.C,R1*%
X63500000Y-41910000D03*
D14*
X71120000Y-41910000D03*
%TD*%
D21*
%TO.C,U1*%
X7620000Y-81280000D03*
D22*
X10160000Y-81280000D03*
X12700000Y-81280000D03*
X15240000Y-81280000D03*
X17780000Y-81280000D03*
X20320000Y-81280000D03*
X22860000Y-81280000D03*
X25400000Y-81280000D03*
X27940000Y-81280000D03*
X30480000Y-81280000D03*
X33020000Y-81280000D03*
X35560000Y-81280000D03*
X38100000Y-81280000D03*
X40640000Y-81280000D03*
X43180000Y-81280000D03*
X45720000Y-81280000D03*
X48260000Y-81280000D03*
X50800000Y-81280000D03*
X53340000Y-81280000D03*
X55880000Y-81280000D03*
X58420000Y-81280000D03*
X60960000Y-81280000D03*
X63500000Y-81280000D03*
X66040000Y-81280000D03*
X68580000Y-81280000D03*
X71120000Y-81280000D03*
X73660000Y-81280000D03*
X76200000Y-81280000D03*
X78740000Y-81280000D03*
X81280000Y-81280000D03*
X81280000Y-48260000D03*
X78740000Y-48260000D03*
X76200000Y-48260000D03*
X73660000Y-48260000D03*
X71120000Y-48260000D03*
X68580000Y-48260000D03*
X66040000Y-48260000D03*
X63500000Y-48260000D03*
X60960000Y-48260000D03*
X58420000Y-48260000D03*
X55880000Y-48260000D03*
X53340000Y-48260000D03*
X50800000Y-48260000D03*
X48260000Y-48260000D03*
X45720000Y-48260000D03*
X43180000Y-48260000D03*
X40640000Y-48260000D03*
X38100000Y-48260000D03*
X35560000Y-48260000D03*
X33020000Y-48260000D03*
X30480000Y-48260000D03*
X27940000Y-48260000D03*
X25400000Y-48260000D03*
X22860000Y-48260000D03*
X20320000Y-48260000D03*
X17780000Y-48260000D03*
X15240000Y-48260000D03*
X12700000Y-48260000D03*
X10160000Y-48260000D03*
X7620000Y-48260000D03*
%TD*%
D10*
%TO.C,C9*%
X43180000Y-43180000D03*
X45680000Y-43180000D03*
%TD*%
%TO.C,R6*%
X22860000Y-78740000D03*
D14*
X22860000Y-71120000D03*
%TD*%
D11*
%TO.C,U3*%
X30480000Y-27546300D03*
X31750000Y-27546300D03*
X33020000Y-27546300D03*
X34290000Y-27546300D03*
X35560000Y-27546300D03*
X36830000Y-27546300D03*
X38100000Y-27546300D03*
X39370000Y-27546300D03*
X40640000Y-27546300D03*
X41910000Y-27546300D03*
X41910000Y-18173700D03*
X40640000Y-18173700D03*
X39370000Y-18173700D03*
X38100000Y-18173700D03*
X36830000Y-18173700D03*
X35560000Y-18173700D03*
X34290000Y-18173700D03*
X33020000Y-18173700D03*
X31750000Y-18173700D03*
X30480000Y-18173700D03*
%TD*%
D10*
%TO.C,R4*%
X7620000Y-78740000D03*
D14*
X7620000Y-71120000D03*
%TD*%
D12*
%TO.C,REF\u002A\u002A*%
X5080000Y-93980000D03*
%TD*%
D11*
%TO.C,U4*%
X48260000Y-27546300D03*
X49530000Y-27546300D03*
X50800000Y-27546300D03*
X52070000Y-27546300D03*
X53340000Y-27546300D03*
X54610000Y-27546300D03*
X55880000Y-27546300D03*
X57150000Y-27546300D03*
X58420000Y-27546300D03*
X59690000Y-27546300D03*
X59690000Y-18173700D03*
X58420000Y-18173700D03*
X57150000Y-18173700D03*
X55880000Y-18173700D03*
X54610000Y-18173700D03*
X53340000Y-18173700D03*
X52070000Y-18173700D03*
X50800000Y-18173700D03*
X49530000Y-18173700D03*
X48260000Y-18173700D03*
%TD*%
D23*
%TO.C,C11*%
X43180000Y-35560000D03*
D10*
X45680000Y-35560000D03*
%TD*%
%TO.C,R14*%
X95250000Y-63500000D03*
D14*
X87630000Y-63500000D03*
%TD*%
D15*
%TO.C,J4*%
X88900000Y-30480000D03*
D16*
X88900000Y-33020000D03*
X88900000Y-35560000D03*
X88900000Y-38100000D03*
X88900000Y-40640000D03*
X88900000Y-43180000D03*
%TD*%
D10*
%TO.C,C3*%
X5080000Y-24765000D03*
X7580000Y-24765000D03*
%TD*%
%TO.C,C4*%
X10080000Y-31750000D03*
X5080000Y-31750000D03*
%TD*%
D11*
%TO.C,U2*%
X12700000Y-27546300D03*
X13970000Y-27546300D03*
X15240000Y-27546300D03*
X16510000Y-27546300D03*
X17780000Y-27546300D03*
X19050000Y-27546300D03*
X20320000Y-27546300D03*
X21590000Y-27546300D03*
X22860000Y-27546300D03*
X24130000Y-27546300D03*
X24130000Y-18173700D03*
X22860000Y-18173700D03*
X21590000Y-18173700D03*
X20320000Y-18173700D03*
X19050000Y-18173700D03*
X17780000Y-18173700D03*
X16510000Y-18173700D03*
X15240000Y-18173700D03*
X13970000Y-18173700D03*
X12700000Y-18173700D03*
%TD*%
D15*
%TO.C,J3*%
X7620000Y-45720000D03*
D16*
X10160000Y-45720000D03*
X12700000Y-45720000D03*
X15240000Y-45720000D03*
X17780000Y-45720000D03*
X20320000Y-45720000D03*
X22860000Y-45720000D03*
X25400000Y-45720000D03*
X27940000Y-45720000D03*
X30480000Y-45720000D03*
X33020000Y-45720000D03*
X35560000Y-45720000D03*
X38100000Y-45720000D03*
X40640000Y-45720000D03*
X43180000Y-45720000D03*
X45720000Y-45720000D03*
X48260000Y-45720000D03*
X50800000Y-45720000D03*
X53340000Y-45720000D03*
X55880000Y-45720000D03*
X58420000Y-45720000D03*
X60960000Y-45720000D03*
X63500000Y-45720000D03*
X66040000Y-45720000D03*
X68580000Y-45720000D03*
X71120000Y-45720000D03*
X73660000Y-45720000D03*
X76200000Y-45720000D03*
X78740000Y-45720000D03*
X81280000Y-45720000D03*
%TD*%
D12*
%TO.C,REF\u002A\u002A*%
X93980000Y-13970000D03*
%TD*%
D15*
%TO.C,J1*%
X10160000Y-5080000D03*
D16*
X10160000Y-2540000D03*
X12700000Y-5080000D03*
X12700000Y-2540000D03*
X15240000Y-5080000D03*
X15240000Y-2540000D03*
X17780000Y-5080000D03*
X17780000Y-2540000D03*
X20320000Y-5080000D03*
X20320000Y-2540000D03*
X22860000Y-5080000D03*
X22860000Y-2540000D03*
X25400000Y-5080000D03*
X25400000Y-2540000D03*
X27940000Y-5080000D03*
X27940000Y-2540000D03*
X30480000Y-5080000D03*
X30480000Y-2540000D03*
X33020000Y-5080000D03*
X33020000Y-2540000D03*
X35560000Y-5080000D03*
X35560000Y-2540000D03*
X38100000Y-5080000D03*
X38100000Y-2540000D03*
X40640000Y-5080000D03*
X40640000Y-2540000D03*
X43180000Y-5080000D03*
X43180000Y-2540000D03*
X45720000Y-5080000D03*
X45720000Y-2540000D03*
X48260000Y-5080000D03*
X48260000Y-2540000D03*
X50800000Y-5080000D03*
X50800000Y-2540000D03*
X53340000Y-5080000D03*
X53340000Y-2540000D03*
X55880000Y-5080000D03*
X55880000Y-2540000D03*
X58420000Y-5080000D03*
X58420000Y-2540000D03*
%TD*%
M02*
