%TF.GenerationSoftware,KiCad,Pcbnew,8.0.5*%
%TF.CreationDate,2025-08-25T13:08:50+09:00*%
%TF.ProjectId,TangConsoleDCJ11MEM,54616e67-436f-46e7-936f-6c6544434a31,rev?*%
%TF.SameCoordinates,Original*%
%TF.FileFunction,Copper,L1,Top*%
%TF.FilePolarity,Positive*%
%FSLAX46Y46*%
G04 Gerber Fmt 4.6, Leading zero omitted, Abs format (unit mm)*
G04 Created by KiCad (PCBNEW 8.0.5) date 2025-08-25 13:08:50*
%MOMM*%
%LPD*%
G01*
G04 APERTURE LIST*
G04 Aperture macros list*
%AMRoundRect*
0 Rectangle with rounded corners*
0 $1 Rounding radius*
0 $2 $3 $4 $5 $6 $7 $8 $9 X,Y pos of 4 corners*
0 Add a 4 corners polygon primitive as box body*
4,1,4,$2,$3,$4,$5,$6,$7,$8,$9,$2,$3,0*
0 Add four circle primitives for the rounded corners*
1,1,$1+$1,$2,$3*
1,1,$1+$1,$4,$5*
1,1,$1+$1,$6,$7*
1,1,$1+$1,$8,$9*
0 Add four rect primitives between the rounded corners*
20,1,$1+$1,$2,$3,$4,$5,0*
20,1,$1+$1,$4,$5,$6,$7,0*
20,1,$1+$1,$6,$7,$8,$9,0*
20,1,$1+$1,$8,$9,$2,$3,0*%
G04 Aperture macros list end*
%TA.AperFunction,ComponentPad*%
%ADD10C,1.600000*%
%TD*%
%TA.AperFunction,SMDPad,CuDef*%
%ADD11R,0.558800X1.981200*%
%TD*%
%TA.AperFunction,ComponentPad*%
%ADD12C,2.000000*%
%TD*%
%TA.AperFunction,ComponentPad*%
%ADD13O,1.600000X1.600000*%
%TD*%
%TA.AperFunction,ComponentPad*%
%ADD14R,1.700000X1.700000*%
%TD*%
%TA.AperFunction,ComponentPad*%
%ADD15O,1.700000X1.700000*%
%TD*%
%TA.AperFunction,ComponentPad*%
%ADD16C,1.500000*%
%TD*%
%TA.AperFunction,SMDPad,CuDef*%
%ADD17RoundRect,0.162500X-0.617500X-0.162500X0.617500X-0.162500X0.617500X0.162500X-0.617500X0.162500X0*%
%TD*%
%TA.AperFunction,ComponentPad*%
%ADD18C,1.800000*%
%TD*%
%TA.AperFunction,ComponentPad*%
%ADD19R,1.800000X1.800000*%
%TD*%
%TA.AperFunction,ComponentPad*%
%ADD20R,1.600000X2.400000*%
%TD*%
%TA.AperFunction,ComponentPad*%
%ADD21O,1.600000X2.400000*%
%TD*%
%TA.AperFunction,ComponentPad*%
%ADD22R,1.600000X1.600000*%
%TD*%
%TA.AperFunction,ViaPad*%
%ADD23C,0.800000*%
%TD*%
%TA.AperFunction,Conductor*%
%ADD24C,1.000000*%
%TD*%
%TA.AperFunction,Conductor*%
%ADD25C,0.250000*%
%TD*%
%TA.AperFunction,Conductor*%
%ADD26C,0.400000*%
%TD*%
%TA.AperFunction,Conductor*%
%ADD27C,0.500000*%
%TD*%
%TA.AperFunction,Conductor*%
%ADD28C,2.000000*%
%TD*%
%TA.AperFunction,Conductor*%
%ADD29C,1.500000*%
%TD*%
G04 APERTURE END LIST*
D10*
%TO.P,C8,1*%
%TO.N,+3.3V*%
X63500000Y-21590000D03*
%TO.P,C8,2*%
%TO.N,GND*%
X63500000Y-24090000D03*
%TD*%
%TO.P,C6,1*%
%TO.N,+3.3V*%
X27940000Y-21590000D03*
%TO.P,C6,2*%
%TO.N,GND*%
X27940000Y-24090000D03*
%TD*%
%TO.P,C7,1*%
%TO.N,+3.3V*%
X10160000Y-21590000D03*
%TO.P,C7,2*%
%TO.N,GND*%
X10160000Y-24090000D03*
%TD*%
%TO.P,C5,1*%
%TO.N,+3.3V*%
X45720000Y-21590000D03*
%TO.P,C5,2*%
%TO.N,GND*%
X45720000Y-24090000D03*
%TD*%
D11*
%TO.P,U5,1,NC*%
%TO.N,unconnected-(U5-NC-Pad1)*%
X66040000Y-27546300D03*
%TO.P,U5,2,A1*%
%TO.N,DAL17*%
X67310000Y-27546300D03*
%TO.P,U5,3,A2*%
%TO.N,SCTL_n*%
X68580000Y-27546300D03*
%TO.P,U5,4,A3*%
%TO.N,DAL16*%
X69850000Y-27546300D03*
%TO.P,U5,5,A4*%
%TO.N,GPIO_RX*%
X71120000Y-27546300D03*
%TO.P,U5,6,A5*%
%TO.N,BS0*%
X72390000Y-27546300D03*
%TO.P,U5,7,A6*%
%TO.N,BS1*%
X73660000Y-27546300D03*
%TO.P,U5,8,A7*%
%TO.N,MAP_n*%
X74930000Y-27546300D03*
%TO.P,U5,9,A8*%
%TO.N,Net-(U5-A8)*%
X76200000Y-27546300D03*
%TO.P,U5,10,GND*%
%TO.N,GND*%
X77470000Y-27546300D03*
%TO.P,U5,11,B8*%
%TO.N,CLK2_L*%
X77470000Y-18173700D03*
%TO.P,U5,12,B7*%
%TO.N,MAP_n_L*%
X76200000Y-18173700D03*
%TO.P,U5,13,B6*%
%TO.N,BS1_L*%
X74930000Y-18173700D03*
%TO.P,U5,14,B5*%
%TO.N,BS0_L*%
X73660000Y-18173700D03*
%TO.P,U5,15,B4*%
%TO.N,GPIO_RX_L*%
X72390000Y-18173700D03*
%TO.P,U5,16,B3*%
%TO.N,DAL16_L*%
X71120000Y-18173700D03*
%TO.P,U5,17,B2*%
%TO.N,SCTL_n_L*%
X69850000Y-18173700D03*
%TO.P,U5,18,B1*%
%TO.N,DAL17_L*%
X68580000Y-18173700D03*
%TO.P,U5,19,\u002AOE*%
%TO.N,GND*%
X67310000Y-18173700D03*
%TO.P,U5,20,VCC*%
%TO.N,+3.3V*%
X66040000Y-18173700D03*
%TD*%
D12*
%TO.P,SW1,2,2*%
%TO.N,+3.3V*%
X94130000Y-73080000D03*
X87630000Y-73080000D03*
%TO.P,SW1,1,1*%
%TO.N,INIT_SW*%
X94130000Y-68580000D03*
X87630000Y-68580000D03*
%TD*%
D10*
%TO.P,R8,1*%
%TO.N,PARITY_n*%
X40640000Y-78740000D03*
D13*
%TO.P,R8,2*%
%TO.N,+5V*%
X40640000Y-71120000D03*
%TD*%
D14*
%TO.P,J5,1,Pin_1*%
%TO.N,GND*%
X88900000Y-20320000D03*
D15*
%TO.P,J5,2,Pin_2*%
X91440000Y-20320000D03*
%TO.P,J5,3,Pin_3*%
%TO.N,BS0_L*%
X88900000Y-22860000D03*
%TO.P,J5,4,Pin_4*%
%TO.N,BS1_L*%
X91440000Y-22860000D03*
%TO.P,J5,5,Pin_5*%
%TO.N,MAP_n_L*%
X88900000Y-25400000D03*
%TO.P,J5,6,Pin_6*%
%TO.N,STRB_n_L*%
X91440000Y-25400000D03*
%TD*%
D14*
%TO.P,J2,1,Pin_1*%
%TO.N,TEST1_n*%
X7620000Y-83820000D03*
D15*
%TO.P,J2,2,Pin_2*%
%TO.N,AIO0*%
X10160000Y-83820000D03*
%TO.P,J2,3,Pin_3*%
%TO.N,AIO1*%
X12700000Y-83820000D03*
%TO.P,J2,4,Pin_4*%
%TO.N,AIO2*%
X15240000Y-83820000D03*
%TO.P,J2,5,Pin_5*%
%TO.N,AIO3*%
X17780000Y-83820000D03*
%TO.P,J2,6,Pin_6*%
%TO.N,PWRF_n*%
X20320000Y-83820000D03*
%TO.P,J2,7,Pin_7*%
%TO.N,FPE_n*%
X22860000Y-83820000D03*
%TO.P,J2,8,Pin_8*%
%TO.N,EVENT_n*%
X25400000Y-83820000D03*
%TO.P,J2,9,Pin_9*%
%TO.N,HALT*%
X27940000Y-83820000D03*
%TO.P,J2,10,Pin_10*%
%TO.N,IRQ0*%
X30480000Y-83820000D03*
%TO.P,J2,11,Pin_11*%
%TO.N,IRQ1*%
X33020000Y-83820000D03*
%TO.P,J2,12,Pin_12*%
%TO.N,IRQ2*%
X35560000Y-83820000D03*
%TO.P,J2,13,Pin_13*%
%TO.N,IRQ3*%
X38100000Y-83820000D03*
%TO.P,J2,14,Pin_14*%
%TO.N,PARITY_n*%
X40640000Y-83820000D03*
%TO.P,J2,15,Pin_15*%
%TO.N,GND*%
X43180000Y-83820000D03*
%TO.P,J2,16,Pin_16*%
%TO.N,+5V*%
X45720000Y-83820000D03*
%TO.P,J2,17,Pin_17*%
%TO.N,BS0*%
X48260000Y-83820000D03*
%TO.P,J2,18,Pin_18*%
%TO.N,BS1*%
X50800000Y-83820000D03*
%TO.P,J2,19,Pin_19*%
%TO.N,MAP_n*%
X53340000Y-83820000D03*
%TO.P,J2,20,Pin_20*%
%TO.N,ABORT_n*%
X55880000Y-83820000D03*
%TO.P,J2,21,Pin_21*%
%TO.N,DAL21*%
X58420000Y-83820000D03*
%TO.P,J2,22,Pin_22*%
%TO.N,DAL20*%
X60960000Y-83820000D03*
%TO.P,J2,23,Pin_23*%
%TO.N,DAL19*%
X63500000Y-83820000D03*
%TO.P,J2,24,Pin_24*%
%TO.N,DAL18*%
X66040000Y-83820000D03*
%TO.P,J2,25,Pin_25*%
%TO.N,DAL17*%
X68580000Y-83820000D03*
%TO.P,J2,26,Pin_26*%
%TO.N,DAL16*%
X71120000Y-83820000D03*
%TO.P,J2,27,Pin_27*%
%TO.N,DMR_n*%
X73660000Y-83820000D03*
%TO.P,J2,28,Pin_28*%
%TO.N,MISS_n*%
X76200000Y-83820000D03*
%TO.P,J2,29,Pin_29*%
%TO.N,PRDC_n*%
X78740000Y-83820000D03*
%TO.P,J2,30,Pin_30*%
%TO.N,unconnected-(J2-Pin_30-Pad30)*%
X81280000Y-83820000D03*
%TD*%
D10*
%TO.P,R11,1*%
%TO.N,CLK2*%
X78740000Y-38100000D03*
D13*
%TO.P,R11,2*%
%TO.N,Net-(U5-A8)*%
X78740000Y-30480000D03*
%TD*%
D10*
%TO.P,R12,1*%
%TO.N,GND*%
X95250000Y-58420000D03*
D13*
%TO.P,R12,2*%
%TO.N,Net-(D1-K)*%
X87630000Y-58420000D03*
%TD*%
D10*
%TO.P,R10,1*%
%TO.N,MISS_n*%
X76200000Y-78740000D03*
D13*
%TO.P,R10,2*%
%TO.N,+5V*%
X76200000Y-71120000D03*
%TD*%
D16*
%TO.P,Y1,1,1*%
%TO.N,XTALI*%
X69650000Y-37465000D03*
%TO.P,Y1,2,2*%
%TO.N,XTALO*%
X64770000Y-37465000D03*
%TD*%
D17*
%TO.P,U6,1,VIN*%
%TO.N,+5V*%
X5080000Y-27310000D03*
%TO.P,U6,2,GND*%
%TO.N,GND*%
X5080000Y-28260000D03*
%TO.P,U6,3,CONTROL*%
%TO.N,+5V*%
X5080000Y-29210000D03*
%TO.P,U6,4,CS*%
%TO.N,unconnected-(U6-CS-Pad4)*%
X7780000Y-29210000D03*
%TO.P,U6,5,VOUT*%
%TO.N,+3.3V*%
X7780000Y-27310000D03*
%TD*%
D18*
%TO.P,D1,2,A*%
%TO.N,+5V*%
X87630000Y-53340000D03*
D19*
%TO.P,D1,1,K*%
%TO.N,Net-(D1-K)*%
X90170000Y-53340000D03*
%TD*%
D10*
%TO.P,C1,1*%
%TO.N,GND*%
X59690000Y-38100000D03*
%TO.P,C1,2*%
%TO.N,XTALO*%
X59690000Y-35600000D03*
%TD*%
%TO.P,R3,1*%
%TO.N,TEST2_n*%
X81280000Y-50800000D03*
D13*
%TO.P,R3,2*%
%TO.N,+5V*%
X81280000Y-58420000D03*
%TD*%
D10*
%TO.P,C2,1*%
%TO.N,GND*%
X74930000Y-38100000D03*
%TO.P,C2,2*%
%TO.N,XTALI*%
X74930000Y-35600000D03*
%TD*%
%TO.P,R2,1*%
%TO.N,DV*%
X53340000Y-50800000D03*
D13*
%TO.P,R2,2*%
%TO.N,+5V*%
X53340000Y-58420000D03*
%TD*%
D10*
%TO.P,R13,1*%
%TO.N,GND*%
X95250000Y-60960000D03*
D13*
%TO.P,R13,2*%
%TO.N,INIT_SW*%
X87630000Y-60960000D03*
%TD*%
D10*
%TO.P,R5,1*%
%TO.N,PWRF_n*%
X20320000Y-78740000D03*
D13*
%TO.P,R5,2*%
%TO.N,+5V*%
X20320000Y-71120000D03*
%TD*%
D10*
%TO.P,C10,1*%
%TO.N,+5V*%
X45720000Y-86360000D03*
%TO.P,C10,2*%
%TO.N,GND*%
X43220000Y-86360000D03*
%TD*%
D12*
%TO.P,SW2,1,1*%
%TO.N,HALT_SW*%
X87630000Y-81280000D03*
X94130000Y-81280000D03*
%TO.P,SW2,2,2*%
%TO.N,+3.3V*%
X87630000Y-85780000D03*
X94130000Y-85780000D03*
%TD*%
D10*
%TO.P,R7,1*%
%TO.N,IRQ3*%
X38100000Y-78740000D03*
D13*
%TO.P,R7,2*%
%TO.N,GND*%
X38100000Y-71120000D03*
%TD*%
D10*
%TO.P,R9,1*%
%TO.N,DMR_n*%
X73660000Y-78740000D03*
D13*
%TO.P,R9,2*%
%TO.N,+5V*%
X73660000Y-71120000D03*
%TD*%
D10*
%TO.P,R1,1*%
%TO.N,XTALO*%
X63500000Y-41910000D03*
D13*
%TO.P,R1,2*%
%TO.N,XTALI*%
X71120000Y-41910000D03*
%TD*%
D20*
%TO.P,U1,1,~{TEST1}*%
%TO.N,TEST1_n*%
X7620000Y-81280000D03*
D21*
%TO.P,U1,2,AIO0*%
%TO.N,AIO0*%
X10160000Y-81280000D03*
%TO.P,U1,3,AIO1*%
%TO.N,AIO1*%
X12700000Y-81280000D03*
%TO.P,U1,4,AIO2*%
%TO.N,AIO2*%
X15240000Y-81280000D03*
%TO.P,U1,5,AIO3*%
%TO.N,AIO3*%
X17780000Y-81280000D03*
%TO.P,U1,6,~{PWRF}*%
%TO.N,PWRF_n*%
X20320000Y-81280000D03*
%TO.P,U1,7,~{FPE}*%
%TO.N,FPE_n*%
X22860000Y-81280000D03*
%TO.P,U1,8,~{EVENT}*%
%TO.N,EVENT_n*%
X25400000Y-81280000D03*
%TO.P,U1,9,HALT*%
%TO.N,HALT*%
X27940000Y-81280000D03*
%TO.P,U1,10,IRQ0*%
%TO.N,IRQ0*%
X30480000Y-81280000D03*
%TO.P,U1,11,IRQ1*%
%TO.N,IRQ1*%
X33020000Y-81280000D03*
%TO.P,U1,12,IRQ2*%
%TO.N,IRQ2*%
X35560000Y-81280000D03*
%TO.P,U1,13,IRQ3*%
%TO.N,IRQ3*%
X38100000Y-81280000D03*
%TO.P,U1,14,~{PARITY}*%
%TO.N,PARITY_n*%
X40640000Y-81280000D03*
%TO.P,U1,15,GND*%
%TO.N,GND*%
X43180000Y-81280000D03*
%TO.P,U1,16,VCC*%
%TO.N,+5V*%
X45720000Y-81280000D03*
%TO.P,U1,17,BS0*%
%TO.N,BS0*%
X48260000Y-81280000D03*
%TO.P,U1,18,BS1*%
%TO.N,BS1*%
X50800000Y-81280000D03*
%TO.P,U1,19,~{MAP}*%
%TO.N,MAP_n*%
X53340000Y-81280000D03*
%TO.P,U1,20,~{ABORT}*%
%TO.N,ABORT_n*%
X55880000Y-81280000D03*
%TO.P,U1,21,DAL21*%
%TO.N,DAL21*%
X58420000Y-81280000D03*
%TO.P,U1,22,DAL20*%
%TO.N,DAL20*%
X60960000Y-81280000D03*
%TO.P,U1,23,DAL19*%
%TO.N,DAL19*%
X63500000Y-81280000D03*
%TO.P,U1,24,DAL18*%
%TO.N,DAL18*%
X66040000Y-81280000D03*
%TO.P,U1,25,DAL17*%
%TO.N,DAL17*%
X68580000Y-81280000D03*
%TO.P,U1,26,DAL16*%
%TO.N,DAL16*%
X71120000Y-81280000D03*
%TO.P,U1,27,~{DMR}*%
%TO.N,DMR_n*%
X73660000Y-81280000D03*
%TO.P,U1,28,~{MISS}*%
%TO.N,MISS_n*%
X76200000Y-81280000D03*
%TO.P,U1,29,~{PRDC}*%
%TO.N,PRDC_n*%
X78740000Y-81280000D03*
%TO.P,U1,30,NC*%
%TO.N,unconnected-(U1-NC-Pad30)*%
X81280000Y-81280000D03*
%TO.P,U1,31,~{TEST2}*%
%TO.N,TEST2_n*%
X81280000Y-48260000D03*
%TO.P,U1,32,CONT*%
%TO.N,CONT_n*%
X78740000Y-48260000D03*
%TO.P,U1,33,~{INIT}*%
%TO.N,INIT_n*%
X76200000Y-48260000D03*
%TO.P,U1,34,CLK2*%
%TO.N,CLK2*%
X73660000Y-48260000D03*
%TO.P,U1,35,CLK*%
%TO.N,CLK*%
X71120000Y-48260000D03*
%TO.P,U1,36,XTALI*%
%TO.N,XTALI*%
X68580000Y-48260000D03*
%TO.P,U1,37,XTALO*%
%TO.N,XTALO*%
X66040000Y-48260000D03*
%TO.P,U1,38,~{SCTL}*%
%TO.N,SCTL_n*%
X63500000Y-48260000D03*
%TO.P,U1,39,~{STRB}*%
%TO.N,STRB_n*%
X60960000Y-48260000D03*
%TO.P,U1,40,~{ALE}*%
%TO.N,ALE_n*%
X58420000Y-48260000D03*
%TO.P,U1,41,~{BUFCTL}*%
%TO.N,BUFCTL_n*%
X55880000Y-48260000D03*
%TO.P,U1,42,DV*%
%TO.N,DV*%
X53340000Y-48260000D03*
%TO.P,U1,43,DAL5*%
%TO.N,DAL5*%
X50800000Y-48260000D03*
%TO.P,U1,44,DAL4*%
%TO.N,DAL4*%
X48260000Y-48260000D03*
%TO.P,U1,45,GND*%
%TO.N,GND*%
X45720000Y-48260000D03*
%TO.P,U1,46,VCC*%
%TO.N,+5V*%
X43180000Y-48260000D03*
%TO.P,U1,47,DAL3*%
%TO.N,DAL3*%
X40640000Y-48260000D03*
%TO.P,U1,48,DAL2*%
%TO.N,DAL2*%
X38100000Y-48260000D03*
%TO.P,U1,49,DAL1*%
%TO.N,DAL1*%
X35560000Y-48260000D03*
%TO.P,U1,50,DAL15*%
%TO.N,DAL15*%
X33020000Y-48260000D03*
%TO.P,U1,51,DAL14*%
%TO.N,DAL14*%
X30480000Y-48260000D03*
%TO.P,U1,52,DAL13*%
%TO.N,DAL13*%
X27940000Y-48260000D03*
%TO.P,U1,53,DAL12*%
%TO.N,DAL12*%
X25400000Y-48260000D03*
%TO.P,U1,54,DAL11*%
%TO.N,DAL11*%
X22860000Y-48260000D03*
%TO.P,U1,55,DAL10*%
%TO.N,DAL10*%
X20320000Y-48260000D03*
%TO.P,U1,56,DAL9*%
%TO.N,DAL9*%
X17780000Y-48260000D03*
%TO.P,U1,57,DAL0*%
%TO.N,DAL0*%
X15240000Y-48260000D03*
%TO.P,U1,58,DAL8*%
%TO.N,DAL8*%
X12700000Y-48260000D03*
%TO.P,U1,59,DAL7*%
%TO.N,DAL7*%
X10160000Y-48260000D03*
%TO.P,U1,60,DAL6*%
%TO.N,DAL6*%
X7620000Y-48260000D03*
%TD*%
D10*
%TO.P,C9,1*%
%TO.N,+5V*%
X43180000Y-43180000D03*
%TO.P,C9,2*%
%TO.N,GND*%
X45680000Y-43180000D03*
%TD*%
%TO.P,R6,1*%
%TO.N,FPE_n*%
X22860000Y-78740000D03*
D13*
%TO.P,R6,2*%
%TO.N,+5V*%
X22860000Y-71120000D03*
%TD*%
D11*
%TO.P,U3,1,NC*%
%TO.N,unconnected-(U3-NC-Pad1)*%
X30480000Y-27546300D03*
%TO.P,U3,2,A1*%
%TO.N,DAL9*%
X31750000Y-27546300D03*
%TO.P,U3,3,A2*%
%TO.N,DAL10*%
X33020000Y-27546300D03*
%TO.P,U3,4,A3*%
%TO.N,DAL11*%
X34290000Y-27546300D03*
%TO.P,U3,5,A4*%
%TO.N,DAL12*%
X35560000Y-27546300D03*
%TO.P,U3,6,A5*%
%TO.N,DAL13*%
X36830000Y-27546300D03*
%TO.P,U3,7,A6*%
%TO.N,DAL14*%
X38100000Y-27546300D03*
%TO.P,U3,8,A7*%
%TO.N,DAL15*%
X39370000Y-27546300D03*
%TO.P,U3,9,A8*%
%TO.N,DAL1*%
X40640000Y-27546300D03*
%TO.P,U3,10,GND*%
%TO.N,GND*%
X41910000Y-27546300D03*
%TO.P,U3,11,B8*%
%TO.N,DAL1_L*%
X41910000Y-18173700D03*
%TO.P,U3,12,B7*%
%TO.N,DAL15_L*%
X40640000Y-18173700D03*
%TO.P,U3,13,B6*%
%TO.N,DAL14_L*%
X39370000Y-18173700D03*
%TO.P,U3,14,B5*%
%TO.N,DAL13_L*%
X38100000Y-18173700D03*
%TO.P,U3,15,B4*%
%TO.N,DAL12_L*%
X36830000Y-18173700D03*
%TO.P,U3,16,B3*%
%TO.N,DAL11_L*%
X35560000Y-18173700D03*
%TO.P,U3,17,B2*%
%TO.N,DAL10_L*%
X34290000Y-18173700D03*
%TO.P,U3,18,B1*%
%TO.N,DAL9_L*%
X33020000Y-18173700D03*
%TO.P,U3,19,\u002AOE*%
%TO.N,GND*%
X31750000Y-18173700D03*
%TO.P,U3,20,VCC*%
%TO.N,+3.3V*%
X30480000Y-18173700D03*
%TD*%
D10*
%TO.P,R4,1*%
%TO.N,TEST1_n*%
X7620000Y-78740000D03*
D13*
%TO.P,R4,2*%
%TO.N,+5V*%
X7620000Y-71120000D03*
%TD*%
D11*
%TO.P,U4,1,NC*%
%TO.N,unconnected-(U4-NC-Pad1)*%
X48260000Y-27546300D03*
%TO.P,U4,2,A1*%
%TO.N,DAL2*%
X49530000Y-27546300D03*
%TO.P,U4,3,A2*%
%TO.N,DAL3*%
X50800000Y-27546300D03*
%TO.P,U4,4,A3*%
%TO.N,DAL4*%
X52070000Y-27546300D03*
%TO.P,U4,5,A4*%
%TO.N,DAL5*%
X53340000Y-27546300D03*
%TO.P,U4,6,A5*%
%TO.N,ABORT_n*%
X54610000Y-27546300D03*
%TO.P,U4,7,A6*%
%TO.N,BUFCTL_n*%
X55880000Y-27546300D03*
%TO.P,U4,8,A7*%
%TO.N,ALE_n*%
X57150000Y-27546300D03*
%TO.P,U4,9,A8*%
%TO.N,STRB_n*%
X58420000Y-27546300D03*
%TO.P,U4,10,GND*%
%TO.N,GND*%
X59690000Y-27546300D03*
%TO.P,U4,11,B8*%
%TO.N,STRB_n_L*%
X59690000Y-18173700D03*
%TO.P,U4,12,B7*%
%TO.N,ALE_n_L*%
X58420000Y-18173700D03*
%TO.P,U4,13,B6*%
%TO.N,BUFCTL_n_L*%
X57150000Y-18173700D03*
%TO.P,U4,14,B5*%
%TO.N,ABORT_n_L*%
X55880000Y-18173700D03*
%TO.P,U4,15,B4*%
%TO.N,DAL5_L*%
X54610000Y-18173700D03*
%TO.P,U4,16,B3*%
%TO.N,DAL4_L*%
X53340000Y-18173700D03*
%TO.P,U4,17,B2*%
%TO.N,DAL3_L*%
X52070000Y-18173700D03*
%TO.P,U4,18,B1*%
%TO.N,DAL2_L*%
X50800000Y-18173700D03*
%TO.P,U4,19,\u002AOE*%
%TO.N,GND*%
X49530000Y-18173700D03*
%TO.P,U4,20,VCC*%
%TO.N,+3.3V*%
X48260000Y-18173700D03*
%TD*%
D22*
%TO.P,C11,1*%
%TO.N,+5V*%
X43180000Y-35560000D03*
D10*
%TO.P,C11,2*%
%TO.N,GND*%
X45680000Y-35560000D03*
%TD*%
%TO.P,R14,1*%
%TO.N,GND*%
X95250000Y-63500000D03*
D13*
%TO.P,R14,2*%
%TO.N,HALT_SW*%
X87630000Y-63500000D03*
%TD*%
D14*
%TO.P,J4,1,Pin_1*%
%TO.N,GND*%
X88900000Y-30480000D03*
D15*
%TO.P,J4,2,Pin_2*%
%TO.N,unconnected-(J4-Pin_2-Pad2)*%
X88900000Y-33020000D03*
%TO.P,J4,3,Pin_3*%
%TO.N,unconnected-(J4-Pin_3-Pad3)*%
X88900000Y-35560000D03*
%TO.P,J4,4,Pin_4*%
%TO.N,GPIO_RX*%
X88900000Y-38100000D03*
%TO.P,J4,5,Pin_5*%
%TO.N,GPIO_TX*%
X88900000Y-40640000D03*
%TO.P,J4,6,Pin_6*%
%TO.N,unconnected-(J4-Pin_6-Pad6)*%
X88900000Y-43180000D03*
%TD*%
D10*
%TO.P,C3,1*%
%TO.N,+5V*%
X5080000Y-24765000D03*
%TO.P,C3,2*%
%TO.N,GND*%
X7580000Y-24765000D03*
%TD*%
%TO.P,C4,1*%
%TO.N,+3.3V*%
X10080000Y-31750000D03*
%TO.P,C4,2*%
%TO.N,GND*%
X5080000Y-31750000D03*
%TD*%
D11*
%TO.P,U2,1,NC*%
%TO.N,unconnected-(U2-NC-Pad1)*%
X12700000Y-27546300D03*
%TO.P,U2,2,A1*%
%TO.N,DAL6*%
X13970000Y-27546300D03*
%TO.P,U2,3,A2*%
%TO.N,AIO0*%
X15240000Y-27546300D03*
%TO.P,U2,4,A3*%
%TO.N,DAL7*%
X16510000Y-27546300D03*
%TO.P,U2,5,A4*%
%TO.N,AIO1*%
X17780000Y-27546300D03*
%TO.P,U2,6,A5*%
%TO.N,DAL8*%
X19050000Y-27546300D03*
%TO.P,U2,7,A6*%
%TO.N,AIO2*%
X20320000Y-27546300D03*
%TO.P,U2,8,A7*%
%TO.N,DAL0*%
X21590000Y-27546300D03*
%TO.P,U2,9,A8*%
%TO.N,AIO3*%
X22860000Y-27546300D03*
%TO.P,U2,10,GND*%
%TO.N,GND*%
X24130000Y-27546300D03*
%TO.P,U2,11,B8*%
%TO.N,AIO3_L*%
X24130000Y-18173700D03*
%TO.P,U2,12,B7*%
%TO.N,DAL0_L*%
X22860000Y-18173700D03*
%TO.P,U2,13,B6*%
%TO.N,AIO2_L*%
X21590000Y-18173700D03*
%TO.P,U2,14,B5*%
%TO.N,DAL8_L*%
X20320000Y-18173700D03*
%TO.P,U2,15,B4*%
%TO.N,AIO1_L*%
X19050000Y-18173700D03*
%TO.P,U2,16,B3*%
%TO.N,DAL7_L*%
X17780000Y-18173700D03*
%TO.P,U2,17,B2*%
%TO.N,AIO0_L*%
X16510000Y-18173700D03*
%TO.P,U2,18,B1*%
%TO.N,DAL6_L*%
X15240000Y-18173700D03*
%TO.P,U2,19,\u002AOE*%
%TO.N,GND*%
X13970000Y-18173700D03*
%TO.P,U2,20,VCC*%
%TO.N,+3.3V*%
X12700000Y-18173700D03*
%TD*%
D14*
%TO.P,J3,1,Pin_1*%
%TO.N,DAL6*%
X7620000Y-45720000D03*
D15*
%TO.P,J3,2,Pin_2*%
%TO.N,DAL7*%
X10160000Y-45720000D03*
%TO.P,J3,3,Pin_3*%
%TO.N,DAL8*%
X12700000Y-45720000D03*
%TO.P,J3,4,Pin_4*%
%TO.N,DAL0*%
X15240000Y-45720000D03*
%TO.P,J3,5,Pin_5*%
%TO.N,DAL9*%
X17780000Y-45720000D03*
%TO.P,J3,6,Pin_6*%
%TO.N,DAL10*%
X20320000Y-45720000D03*
%TO.P,J3,7,Pin_7*%
%TO.N,DAL11*%
X22860000Y-45720000D03*
%TO.P,J3,8,Pin_8*%
%TO.N,DAL12*%
X25400000Y-45720000D03*
%TO.P,J3,9,Pin_9*%
%TO.N,DAL13*%
X27940000Y-45720000D03*
%TO.P,J3,10,Pin_10*%
%TO.N,DAL14*%
X30480000Y-45720000D03*
%TO.P,J3,11,Pin_11*%
%TO.N,DAL15*%
X33020000Y-45720000D03*
%TO.P,J3,12,Pin_12*%
%TO.N,DAL1*%
X35560000Y-45720000D03*
%TO.P,J3,13,Pin_13*%
%TO.N,DAL2*%
X38100000Y-45720000D03*
%TO.P,J3,14,Pin_14*%
%TO.N,DAL3*%
X40640000Y-45720000D03*
%TO.P,J3,15,Pin_15*%
%TO.N,+5V*%
X43180000Y-45720000D03*
%TO.P,J3,16,Pin_16*%
%TO.N,GND*%
X45720000Y-45720000D03*
%TO.P,J3,17,Pin_17*%
%TO.N,DAL4*%
X48260000Y-45720000D03*
%TO.P,J3,18,Pin_18*%
%TO.N,DAL5*%
X50800000Y-45720000D03*
%TO.P,J3,19,Pin_19*%
%TO.N,DV*%
X53340000Y-45720000D03*
%TO.P,J3,20,Pin_20*%
%TO.N,BUFCTL_n*%
X55880000Y-45720000D03*
%TO.P,J3,21,Pin_21*%
%TO.N,ALE_n*%
X58420000Y-45720000D03*
%TO.P,J3,22,Pin_22*%
%TO.N,STRB_n*%
X60960000Y-45720000D03*
%TO.P,J3,23,Pin_23*%
%TO.N,SCTL_n*%
X63500000Y-45720000D03*
%TO.P,J3,24,Pin_24*%
%TO.N,XTALO*%
X66040000Y-45720000D03*
%TO.P,J3,25,Pin_25*%
%TO.N,XTALI*%
X68580000Y-45720000D03*
%TO.P,J3,26,Pin_26*%
%TO.N,CLK*%
X71120000Y-45720000D03*
%TO.P,J3,27,Pin_27*%
%TO.N,CLK2*%
X73660000Y-45720000D03*
%TO.P,J3,28,Pin_28*%
%TO.N,INIT_n*%
X76200000Y-45720000D03*
%TO.P,J3,29,Pin_29*%
%TO.N,CONT_n*%
X78740000Y-45720000D03*
%TO.P,J3,30,Pin_30*%
%TO.N,TEST2_n*%
X81280000Y-45720000D03*
%TD*%
D14*
%TO.P,J1,1,Pin_1*%
%TO.N,DAL6_L*%
X10160000Y-5080000D03*
D15*
%TO.P,J1,2,Pin_2*%
%TO.N,AIO0_L*%
X10160000Y-2540000D03*
%TO.P,J1,3,Pin_3*%
%TO.N,DAL7_L*%
X12700000Y-5080000D03*
%TO.P,J1,4,Pin_4*%
%TO.N,AIO1_L*%
X12700000Y-2540000D03*
%TO.P,J1,5,Pin_5*%
%TO.N,DAL8_L*%
X15240000Y-5080000D03*
%TO.P,J1,6,Pin_6*%
%TO.N,AIO2_L*%
X15240000Y-2540000D03*
%TO.P,J1,7,Pin_7*%
%TO.N,DAL0_L*%
X17780000Y-5080000D03*
%TO.P,J1,8,Pin_8*%
%TO.N,AIO3_L*%
X17780000Y-2540000D03*
%TO.P,J1,9,Pin_9*%
%TO.N,EVENT_n*%
X20320000Y-5080000D03*
%TO.P,J1,10,Pin_10*%
%TO.N,HALT*%
X20320000Y-2540000D03*
%TO.P,J1,11,Pin_11*%
%TO.N,+5V*%
X22860000Y-5080000D03*
%TO.P,J1,12,Pin_12*%
%TO.N,GND*%
X22860000Y-2540000D03*
%TO.P,J1,13,Pin_13*%
%TO.N,IRQ0*%
X25400000Y-5080000D03*
%TO.P,J1,14,Pin_14*%
%TO.N,IRQ1*%
X25400000Y-2540000D03*
%TO.P,J1,15,Pin_15*%
%TO.N,IRQ2*%
X27940000Y-5080000D03*
%TO.P,J1,16,Pin_16*%
%TO.N,DAL9_L*%
X27940000Y-2540000D03*
%TO.P,J1,17,Pin_17*%
%TO.N,DAL10_L*%
X30480000Y-5080000D03*
%TO.P,J1,18,Pin_18*%
%TO.N,DAL11_L*%
X30480000Y-2540000D03*
%TO.P,J1,19,Pin_19*%
%TO.N,DAL12_L*%
X33020000Y-5080000D03*
%TO.P,J1,20,Pin_20*%
%TO.N,DAL13_L*%
X33020000Y-2540000D03*
%TO.P,J1,21,Pin_21*%
%TO.N,DAL14_L*%
X35560000Y-5080000D03*
%TO.P,J1,22,Pin_22*%
%TO.N,DAL15_L*%
X35560000Y-2540000D03*
%TO.P,J1,23,Pin_23*%
%TO.N,DAL1_L*%
X38100000Y-5080000D03*
%TO.P,J1,24,Pin_24*%
%TO.N,DAL2_L*%
X38100000Y-2540000D03*
%TO.P,J1,25,Pin_25*%
%TO.N,DAL3_L*%
X40640000Y-5080000D03*
%TO.P,J1,26,Pin_26*%
%TO.N,DAL4_L*%
X40640000Y-2540000D03*
%TO.P,J1,27,Pin_27*%
%TO.N,DAL5_L*%
X43180000Y-5080000D03*
%TO.P,J1,28,Pin_28*%
%TO.N,ABORT_n_L*%
X43180000Y-2540000D03*
%TO.P,J1,29,Pin_29*%
%TO.N,BUFCTL_n_L*%
X45720000Y-5080000D03*
%TO.P,J1,30,Pin_30*%
%TO.N,ALE_n_L*%
X45720000Y-2540000D03*
%TO.P,J1,31,Pin_31*%
%TO.N,DAL17_L*%
X48260000Y-5080000D03*
%TO.P,J1,32,Pin_32*%
%TO.N,SCTL_n_L*%
X48260000Y-2540000D03*
%TO.P,J1,33,Pin_33*%
%TO.N,DAL16_L*%
X50800000Y-5080000D03*
%TO.P,J1,34,Pin_34*%
%TO.N,GPIO_RX_L*%
X50800000Y-2540000D03*
%TO.P,J1,35,Pin_35*%
%TO.N,CLK2_L*%
X53340000Y-5080000D03*
%TO.P,J1,36,Pin_36*%
%TO.N,CONT_n*%
X53340000Y-2540000D03*
%TO.P,J1,37,Pin_37*%
%TO.N,INIT_n*%
X55880000Y-5080000D03*
%TO.P,J1,38,Pin_38*%
%TO.N,HALT_SW*%
X55880000Y-2540000D03*
%TO.P,J1,39,Pin_39*%
%TO.N,INIT_SW*%
X58420000Y-5080000D03*
%TO.P,J1,40,Pin_40*%
%TO.N,GPIO_TX*%
X58420000Y-2540000D03*
%TD*%
D23*
%TO.N,GND*%
X49530000Y-24090000D03*
X67310000Y-24130000D03*
X59690000Y-24090000D03*
X13970000Y-24090000D03*
X31750000Y-24090000D03*
X77470000Y-24130000D03*
X24130000Y-24090000D03*
X41910000Y-24090000D03*
%TO.N,DAL12*%
X35560000Y-37465000D03*
X25400000Y-39640000D03*
%TO.N,DAL13*%
X36830000Y-37465000D03*
X27940000Y-40365000D03*
%TO.N,DAL11*%
X34290000Y-37465000D03*
X22860000Y-38915000D03*
%TO.N,DAL10*%
X20320000Y-38190000D03*
X33020000Y-37465000D03*
%TO.N,DAL9*%
X17780000Y-37465000D03*
X31750000Y-37465000D03*
%TO.N,BS0*%
X69215000Y-71120000D03*
X48260000Y-71120000D03*
%TO.N,BS1*%
X50800000Y-72390000D03*
X69215000Y-72390000D03*
%TO.N,MAP_n*%
X69215000Y-73660000D03*
X53340000Y-73660000D03*
%TO.N,INIT_n*%
X78740000Y-52705000D03*
%TO.N,+3.3V*%
X88265000Y-18415000D03*
X89115003Y-18415000D03*
%TO.N,GPIO_RX*%
X73025000Y-32385000D03*
X83185000Y-32385000D03*
%TO.N,BS1_L*%
X74930000Y-15875000D03*
X86270000Y-15992257D03*
%TO.N,BS0_L*%
X86995000Y-14605000D03*
X73660000Y-14605000D03*
%TO.N,MAP_n_L*%
X76200000Y-16510000D03*
X85344000Y-16764000D03*
%TO.N,STRB_n_L*%
X61595000Y-26035000D03*
X82550000Y-26670000D03*
%TD*%
D24*
%TO.N,GND*%
X8610000Y-22580000D02*
X8610000Y-1897968D01*
X10160000Y-24130000D02*
X8610000Y-22580000D01*
X8215000Y-24130000D02*
X7580000Y-24765000D01*
X10160000Y-24130000D02*
X8215000Y-24130000D01*
%TO.N,+3.3V*%
X9101321Y-27310000D02*
X8559999Y-27310000D01*
X11660000Y-24751321D02*
X9101321Y-27310000D01*
X10160000Y-21590000D02*
X11660000Y-23090000D01*
X11660000Y-23090000D02*
X11660000Y-24751321D01*
%TO.N,GND*%
X59650000Y-24130000D02*
X59690000Y-24090000D01*
X45720000Y-24130000D02*
X59650000Y-24130000D01*
D25*
%TO.N,Net-(D1-K)*%
X90170000Y-55880000D02*
X87630000Y-58420000D01*
X90170000Y-53340000D02*
X90170000Y-55880000D01*
%TO.N,+3.3V*%
X94130000Y-73080000D02*
X87630000Y-73080000D01*
X94130000Y-85780000D02*
X87630000Y-85780000D01*
D26*
X92075000Y-18415000D02*
X88265000Y-18415000D01*
X92690000Y-19030000D02*
X92075000Y-18415000D01*
X92690000Y-71640000D02*
X92690000Y-19030000D01*
X94130000Y-73080000D02*
X92690000Y-71640000D01*
X92730000Y-74480000D02*
X94130000Y-73080000D01*
X94130000Y-85780000D02*
X92730000Y-84380000D01*
X92730000Y-84380000D02*
X92730000Y-74480000D01*
X88265000Y-18415000D02*
X89115003Y-18415000D01*
D25*
%TO.N,HALT_SW*%
X86305000Y-64825000D02*
X86305000Y-79955000D01*
X87630000Y-63500000D02*
X86305000Y-64825000D01*
X86305000Y-79955000D02*
X87630000Y-81280000D01*
%TO.N,INIT_SW*%
X88755000Y-62085000D02*
X88755000Y-67455000D01*
X88755000Y-67455000D02*
X87630000Y-68580000D01*
X87630000Y-60960000D02*
X88755000Y-62085000D01*
D26*
%TO.N,GND*%
X77470000Y-27546300D02*
X77470000Y-24130000D01*
D24*
X22860000Y-2540000D02*
X21310000Y-990000D01*
X45720000Y-48260000D02*
X45720000Y-45720000D01*
D27*
X5080000Y-31750000D02*
X5080000Y-31115000D01*
X41910000Y-27546300D02*
X41910000Y-24090000D01*
D25*
X13970000Y-18173700D02*
X13970000Y-24090000D01*
D24*
X43180000Y-83820000D02*
X43180000Y-81280000D01*
D27*
X6350000Y-28575000D02*
X6350000Y-25995000D01*
D25*
X67310000Y-18173700D02*
X67310000Y-24130000D01*
D27*
X6035000Y-28260000D02*
X6350000Y-28575000D01*
D28*
X45680000Y-48220000D02*
X45720000Y-48260000D01*
D24*
X27940000Y-24130000D02*
X41870000Y-24130000D01*
D25*
X31750000Y-18173700D02*
X31750000Y-24090000D01*
D27*
X24130000Y-27546300D02*
X24130000Y-24090000D01*
X5080000Y-31115000D02*
X6350000Y-29845000D01*
D24*
X63500000Y-24130000D02*
X77470000Y-24130000D01*
D27*
X6350000Y-29845000D02*
X6350000Y-28575000D01*
D24*
X41870000Y-24130000D02*
X41910000Y-24090000D01*
X9517968Y-990000D02*
X8610000Y-1897968D01*
X13970000Y-24090000D02*
X24030000Y-24090000D01*
D27*
X59690000Y-27546300D02*
X59690000Y-24090000D01*
D25*
X49530000Y-18173700D02*
X49530000Y-24090000D01*
D28*
X45680000Y-35560000D02*
X45680000Y-48220000D01*
D24*
X21310000Y-990000D02*
X9517968Y-990000D01*
D27*
X5080000Y-28260000D02*
X6035000Y-28260000D01*
X6350000Y-25995000D02*
X7580000Y-24765000D01*
D24*
%TO.N,XTALO*%
X63500000Y-41910000D02*
X63500000Y-38735000D01*
X66040000Y-44450000D02*
X63500000Y-41910000D01*
X66040000Y-46990000D02*
X66040000Y-45720000D01*
X62905000Y-35600000D02*
X64770000Y-37465000D01*
X66040000Y-48260000D02*
X66040000Y-46990000D01*
X63500000Y-38735000D02*
X64770000Y-37465000D01*
X59690000Y-35600000D02*
X62905000Y-35600000D01*
X66040000Y-45720000D02*
X66040000Y-44450000D01*
%TO.N,XTALI*%
X71120000Y-41910000D02*
X71120000Y-38935000D01*
X74930000Y-35600000D02*
X71515000Y-35600000D01*
X68580000Y-48260000D02*
X68580000Y-45720000D01*
X68580000Y-48260000D02*
X68580000Y-44450000D01*
X71120000Y-38935000D02*
X69650000Y-37465000D01*
X71515000Y-35600000D02*
X69650000Y-37465000D01*
X68580000Y-44450000D02*
X71120000Y-41910000D01*
D25*
%TO.N,AIO3*%
X16510000Y-36830000D02*
X16510000Y-80010000D01*
D24*
X17780000Y-83820000D02*
X17780000Y-81280000D01*
D25*
X22860000Y-27546300D02*
X22860000Y-30480000D01*
X16510000Y-80010000D02*
X17780000Y-81280000D01*
X22860000Y-30480000D02*
X16510000Y-36830000D01*
%TO.N,DAL12*%
X35560000Y-27546300D02*
X35560000Y-37465000D01*
X25400000Y-39640000D02*
X25400000Y-45720000D01*
D24*
X25400000Y-48260000D02*
X25400000Y-45720000D01*
D25*
%TO.N,DAL14*%
X38100000Y-38100000D02*
X30480000Y-45720000D01*
D24*
X30480000Y-48260000D02*
X30480000Y-45720000D01*
D25*
X38100000Y-27546300D02*
X38100000Y-38100000D01*
D24*
%TO.N,DAL0*%
X15240000Y-48260000D02*
X15240000Y-45720000D01*
D25*
X21590000Y-27546300D02*
X21590000Y-30480000D01*
X15240000Y-36830000D02*
X21590000Y-30480000D01*
X15240000Y-45720000D02*
X15240000Y-36830000D01*
%TO.N,DAL13*%
X27940000Y-40365000D02*
X27940000Y-45720000D01*
X36830000Y-27546300D02*
X36830000Y-37465000D01*
D24*
X27940000Y-48260000D02*
X27940000Y-45720000D01*
D25*
%TO.N,AIO0*%
X8985000Y-36736396D02*
X15240000Y-30481396D01*
X10160000Y-81280000D02*
X8985000Y-80105000D01*
X15240000Y-27546300D02*
X15240000Y-30481396D01*
D24*
X10160000Y-83820000D02*
X10160000Y-81280000D01*
D25*
X8985000Y-80105000D02*
X8985000Y-36736396D01*
%TO.N,SCTL_n*%
X58115000Y-32690000D02*
X58115000Y-39556396D01*
X60325698Y-30480698D02*
X60325000Y-30480000D01*
X63500000Y-45720000D02*
X63500000Y-44941396D01*
X60325000Y-30480000D02*
X58115000Y-32690000D01*
X60325698Y-30480698D02*
X66356802Y-30480698D01*
X66356802Y-30480698D02*
X68580000Y-28257500D01*
D24*
X63500000Y-48260000D02*
X63500000Y-45720000D01*
D25*
X63500000Y-44941396D02*
X58115000Y-39556396D01*
D24*
%TO.N,DAL4*%
X48260000Y-48260000D02*
X48260000Y-45720000D01*
D25*
X48260000Y-45720000D02*
X48260000Y-33655000D01*
X48260000Y-33655000D02*
X52070000Y-29845000D01*
X52070000Y-29845000D02*
X52070000Y-27546300D01*
%TO.N,AIO2*%
X13970000Y-80010000D02*
X15240000Y-81280000D01*
X20320000Y-27546300D02*
X20320000Y-30480000D01*
D24*
X15240000Y-83820000D02*
X15240000Y-81280000D01*
D25*
X13970000Y-36830000D02*
X13970000Y-80010000D01*
X20320000Y-30480000D02*
X13970000Y-36830000D01*
%TO.N,DAL15*%
X38735000Y-30353000D02*
X39370000Y-29718000D01*
X39370000Y-29718000D02*
X39370000Y-27546300D01*
X33020000Y-45720000D02*
X38735000Y-40005000D01*
X38735000Y-40005000D02*
X38735000Y-30353000D01*
D24*
X33020000Y-48260000D02*
X33020000Y-45720000D01*
D25*
%TO.N,DAL11*%
X34290000Y-27546300D02*
X34290000Y-37465000D01*
X22860000Y-38915000D02*
X22860000Y-45720000D01*
D24*
X22860000Y-48260000D02*
X22860000Y-45720000D01*
D25*
%TO.N,DAL3*%
X50800000Y-27546300D02*
X50800000Y-28576396D01*
X40640000Y-31115000D02*
X41618750Y-30136250D01*
X40640000Y-45720000D02*
X40640000Y-31115000D01*
X49240146Y-30136250D02*
X50800000Y-28576396D01*
D24*
X40640000Y-48260000D02*
X40640000Y-45720000D01*
D25*
X41618750Y-30136250D02*
X49240146Y-30136250D01*
D24*
%TO.N,DAL6*%
X7620000Y-48260000D02*
X7620000Y-45720000D01*
D25*
X13970000Y-30480000D02*
X13970000Y-27546300D01*
X7620000Y-45720000D02*
X7620000Y-36830000D01*
X7620000Y-36830000D02*
X13970000Y-30480000D01*
%TO.N,AIO1*%
X17780000Y-30480000D02*
X11430000Y-36830000D01*
X11430000Y-36830000D02*
X11430000Y-80010000D01*
D24*
X12700000Y-83820000D02*
X12700000Y-81280000D01*
D25*
X17780000Y-27546300D02*
X17780000Y-30480000D01*
X11430000Y-80010000D02*
X12700000Y-81280000D01*
%TO.N,DAL7*%
X16510000Y-30480000D02*
X10160000Y-36830000D01*
D24*
X10160000Y-48260000D02*
X10160000Y-45720000D01*
D25*
X16510000Y-27546300D02*
X16510000Y-30480000D01*
X10160000Y-36830000D02*
X10160000Y-45720000D01*
%TO.N,DAL5*%
X50800000Y-32385000D02*
X53340000Y-29845000D01*
X53340000Y-29845000D02*
X53340000Y-27546300D01*
D24*
X50800000Y-48260000D02*
X50800000Y-45720000D01*
D25*
X50800000Y-45720000D02*
X50800000Y-32385000D01*
%TO.N,DAL10*%
X33020000Y-27546300D02*
X33020000Y-37465000D01*
D24*
X20320000Y-48260000D02*
X20320000Y-45720000D01*
D25*
X20320000Y-38190000D02*
X20320000Y-45720000D01*
%TO.N,DAL9*%
X17780000Y-37465000D02*
X17780000Y-45720000D01*
D24*
X17780000Y-48260000D02*
X17780000Y-45720000D01*
D25*
X31750000Y-27546300D02*
X31750000Y-37465000D01*
%TO.N,DAL2*%
X41433750Y-29686250D02*
X48101250Y-29686250D01*
X40005698Y-43814302D02*
X40005698Y-31114302D01*
X48101250Y-29686250D02*
X49530000Y-28257500D01*
X41432354Y-29686250D02*
X41433750Y-29686250D01*
X40005698Y-43814302D02*
X38100000Y-45720000D01*
X40005698Y-31114302D02*
X40005698Y-31112906D01*
D24*
X38100000Y-48260000D02*
X38100000Y-45720000D01*
D25*
X40005698Y-31112906D02*
X41432354Y-29686250D01*
D24*
%TO.N,DAL1*%
X35560000Y-48260000D02*
X35560000Y-45720000D01*
D25*
X39370000Y-41910000D02*
X39370000Y-30734000D01*
X40640000Y-29464000D02*
X39370000Y-30734000D01*
X39370000Y-41910000D02*
X35560000Y-45720000D01*
X40640000Y-27546300D02*
X40640000Y-29464000D01*
D24*
%TO.N,ALE_n*%
X58420000Y-48260000D02*
X58420000Y-45720000D01*
D27*
X57150000Y-29845000D02*
X57150000Y-27546300D01*
X56640000Y-30355000D02*
X57150000Y-29845000D01*
X56640000Y-43940000D02*
X56640000Y-30355000D01*
X58420000Y-45720000D02*
X56640000Y-43940000D01*
D25*
%TO.N,DAL8*%
X19050000Y-30480000D02*
X12700000Y-36830000D01*
X19050000Y-27546300D02*
X19050000Y-30480000D01*
X12700000Y-36830000D02*
X12700000Y-45720000D01*
D24*
X12700000Y-48260000D02*
X12700000Y-45720000D01*
D25*
%TO.N,BUFCTL_n*%
X55880000Y-27546300D02*
X55880000Y-45720000D01*
D24*
X55880000Y-48260000D02*
X55880000Y-45720000D01*
D25*
%TO.N,FPE_n*%
X22860000Y-81280000D02*
X22860000Y-78740000D01*
D24*
X22860000Y-83820000D02*
X22860000Y-81280000D01*
%TO.N,PWRF_n*%
X20320000Y-83820000D02*
X20320000Y-81280000D01*
D25*
X20320000Y-81280000D02*
X20320000Y-78740000D01*
%TO.N,EVENT_n*%
X25400000Y-79375000D02*
X25400000Y-81280000D01*
X20320000Y-5080000D02*
X20320000Y-9523604D01*
X24855000Y-31025000D02*
X19050000Y-36830000D01*
D24*
X25400000Y-83820000D02*
X25400000Y-81280000D01*
D25*
X20320000Y-9523604D02*
X24855000Y-14058604D01*
X19050000Y-73025000D02*
X25400000Y-79375000D01*
X24855000Y-14058604D02*
X24855000Y-31025000D01*
X19050000Y-36830000D02*
X19050000Y-73025000D01*
%TO.N,IRQ1*%
X26717500Y-12949500D02*
X26717500Y-3857500D01*
X26205000Y-13462000D02*
X26717500Y-12949500D01*
X26765000Y-73120000D02*
X26765000Y-36576000D01*
X33020000Y-79375000D02*
X33020000Y-81280000D01*
X26765000Y-73120000D02*
X33020000Y-79375000D01*
D24*
X33020000Y-83820000D02*
X33020000Y-81280000D01*
D25*
X26205000Y-36016000D02*
X26205000Y-13462000D01*
X26205000Y-36016000D02*
X26765000Y-36576000D01*
X26717500Y-3857500D02*
X25400000Y-2540000D01*
%TO.N,BS0*%
X76570000Y-34290000D02*
X76570000Y-40905000D01*
X72295000Y-68040000D02*
X69215000Y-71120000D01*
X72295000Y-45180000D02*
X72295000Y-68040000D01*
X72390000Y-27546300D02*
X72390000Y-30110000D01*
D24*
X48260000Y-83820000D02*
X48260000Y-81280000D01*
D25*
X72390000Y-30110000D02*
X76570000Y-34290000D01*
X76570000Y-40905000D02*
X72295000Y-45180000D01*
X48260000Y-71120000D02*
X48260000Y-81280000D01*
%TO.N,HALT*%
X21590000Y-36830000D02*
X21590000Y-73025000D01*
X21495000Y-3715000D02*
X21495000Y-10062208D01*
X25305000Y-33115000D02*
X21590000Y-36830000D01*
X25305000Y-13872208D02*
X25305000Y-33115000D01*
X21495000Y-10062208D02*
X25305000Y-13872208D01*
X20320000Y-2540000D02*
X21495000Y-3715000D01*
X21590000Y-73025000D02*
X27940000Y-79375000D01*
D24*
X27940000Y-83820000D02*
X27940000Y-81280000D01*
D25*
X27940000Y-79375000D02*
X27940000Y-81280000D01*
%TO.N,DAL17*%
X57665000Y-31870000D02*
X59849448Y-29685552D01*
X57665000Y-31870000D02*
X57665000Y-39885000D01*
X68580000Y-79375000D02*
X68580000Y-81280000D01*
X57665000Y-39885000D02*
X62325000Y-44545000D01*
X59849448Y-29685552D02*
X66515552Y-29685552D01*
X62325000Y-44545000D02*
X62325000Y-73120000D01*
X67310000Y-27546300D02*
X67310000Y-28891104D01*
X62325000Y-73120000D02*
X68580000Y-79375000D01*
D24*
X68580000Y-83820000D02*
X68580000Y-81280000D01*
D25*
X67310000Y-28891104D02*
X66515552Y-29685552D01*
D24*
%TO.N,IRQ3*%
X38100000Y-83820000D02*
X38100000Y-81280000D01*
D25*
X38100000Y-81280000D02*
X38100000Y-78740000D01*
%TO.N,DMR_n*%
X73660000Y-81280000D02*
X73660000Y-78740000D01*
D24*
X73660000Y-83820000D02*
X73660000Y-81280000D01*
%TO.N,BS1*%
X50800000Y-83820000D02*
X50800000Y-81280000D01*
D25*
X73660000Y-30478604D02*
X76835000Y-33653604D01*
X76835000Y-33653604D02*
X76835000Y-33655000D01*
X50800000Y-81280000D02*
X50800000Y-72390000D01*
X77020000Y-33840000D02*
X77020000Y-41725000D01*
X76835000Y-33655000D02*
X77020000Y-33840000D01*
X74930000Y-66675000D02*
X74930000Y-43815000D01*
X73660000Y-30478604D02*
X73660000Y-27546300D01*
X69215000Y-72390000D02*
X74930000Y-66675000D01*
X77020000Y-41725000D02*
X74930000Y-43815000D01*
%TO.N,IRQ0*%
X25400000Y-5715000D02*
X25755000Y-6070000D01*
X25755000Y-6070000D02*
X25755000Y-35205000D01*
X30480000Y-79375000D02*
X30480000Y-81280000D01*
D24*
X30480000Y-83820000D02*
X30480000Y-81280000D01*
D25*
X24130000Y-73025000D02*
X30480000Y-79375000D01*
X24130000Y-36830000D02*
X24130000Y-73025000D01*
X25755000Y-35205000D02*
X24130000Y-36830000D01*
%TO.N,MAP_n*%
X74930000Y-31112208D02*
X77470000Y-33652208D01*
D24*
X53340000Y-83820000D02*
X53340000Y-81280000D01*
D25*
X74930000Y-27546300D02*
X74930000Y-31112208D01*
X77470000Y-33652208D02*
X77470000Y-65405000D01*
X53340000Y-73660000D02*
X53340000Y-81280000D01*
X77470000Y-65405000D02*
X69215000Y-73660000D01*
%TO.N,DAL16*%
X60961396Y-31116396D02*
X66991104Y-31116396D01*
X58565000Y-33510000D02*
X58565000Y-39370000D01*
X58565000Y-33510000D02*
X60960000Y-31115000D01*
X71120000Y-79375000D02*
X71120000Y-81280000D01*
X66991104Y-31116396D02*
X69850000Y-28257500D01*
X64770000Y-45328299D02*
X64770000Y-73025000D01*
X58565000Y-39370000D02*
X58811701Y-39370000D01*
X64770000Y-73025000D02*
X71120000Y-79375000D01*
X58811701Y-39370000D02*
X64770000Y-45328299D01*
D24*
X71120000Y-83820000D02*
X71120000Y-81280000D01*
D25*
X60960000Y-31115000D02*
X60961396Y-31116396D01*
D24*
%TO.N,PRDC_n*%
X78740000Y-83820000D02*
X78740000Y-81280000D01*
%TO.N,ABORT_n*%
X55880000Y-83820000D02*
X55880000Y-81280000D01*
D25*
X54610000Y-27546300D02*
X54610000Y-80010000D01*
X54610000Y-80010000D02*
X55880000Y-81280000D01*
D24*
%TO.N,DAL20*%
X60960000Y-83820000D02*
X60960000Y-81280000D01*
%TO.N,DAL19*%
X63500000Y-83820000D02*
X63500000Y-81280000D01*
D25*
%TO.N,TEST1_n*%
X7620000Y-81280000D02*
X7620000Y-78740000D01*
D24*
X7620000Y-83820000D02*
X7620000Y-81280000D01*
%TO.N,DAL21*%
X58420000Y-83820000D02*
X58420000Y-81280000D01*
%TO.N,DAL18*%
X66040000Y-83820000D02*
X66040000Y-81280000D01*
D25*
%TO.N,PARITY_n*%
X40640000Y-81280000D02*
X40640000Y-78740000D01*
D24*
X40640000Y-83820000D02*
X40640000Y-81280000D01*
%TO.N,MISS_n*%
X76200000Y-83820000D02*
X76200000Y-81280000D01*
D25*
X76200000Y-81280000D02*
X76200000Y-78740000D01*
%TO.N,IRQ2*%
X29210000Y-73025000D02*
X29210000Y-36195000D01*
X26815000Y-13825000D02*
X27940000Y-12700000D01*
X29210000Y-36195000D02*
X26815000Y-33800000D01*
D24*
X35560000Y-83820000D02*
X35560000Y-81280000D01*
D25*
X27940000Y-12700000D02*
X27940000Y-5080000D01*
X35560000Y-81280000D02*
X35560000Y-79375000D01*
X35560000Y-79375000D02*
X29210000Y-73025000D01*
X26815000Y-33800000D02*
X26815000Y-13825000D01*
%TO.N,STRB_n*%
X57215000Y-31050000D02*
X58420000Y-29845000D01*
X57215000Y-40705000D02*
X60960000Y-44450000D01*
X57215000Y-31050000D02*
X57215000Y-40705000D01*
X58420000Y-29845000D02*
X58420000Y-27546300D01*
X60960000Y-44450000D02*
X60960000Y-45720000D01*
D24*
X60960000Y-48260000D02*
X60960000Y-45720000D01*
D25*
%TO.N,DV*%
X53340000Y-50800000D02*
X53340000Y-48260000D01*
D24*
X53340000Y-48260000D02*
X53340000Y-45720000D01*
D25*
%TO.N,INIT_n*%
X61968396Y-12310000D02*
X55880000Y-6221604D01*
D24*
X76200000Y-48260000D02*
X76200000Y-45720000D01*
D25*
X83185000Y-42240000D02*
X80315000Y-39370000D01*
X83185000Y-51435000D02*
X83185000Y-42240000D01*
X80315000Y-39370000D02*
X80315000Y-16815000D01*
X55880000Y-6221604D02*
X55880000Y-5080000D01*
X81915000Y-52705000D02*
X83185000Y-51435000D01*
X75810000Y-12310000D02*
X61968396Y-12310000D01*
X80315000Y-16815000D02*
X75810000Y-12310000D01*
X78740000Y-52705000D02*
X81915000Y-52705000D01*
D24*
%TO.N,CLK2*%
X73660000Y-48260000D02*
X73660000Y-45720000D01*
%TO.N,CLK*%
X71120000Y-48260000D02*
X71120000Y-45720000D01*
D25*
%TO.N,TEST2_n*%
X81280000Y-50800000D02*
X81280000Y-48260000D01*
D24*
X81280000Y-48260000D02*
X81280000Y-45720000D01*
D25*
%TO.N,CONT_n*%
X75565000Y-12845000D02*
X79865000Y-17145000D01*
X54705000Y-3905000D02*
X54705000Y-5683000D01*
X75565000Y-12760000D02*
X75565000Y-12845000D01*
X54705000Y-5683000D02*
X61782000Y-12760000D01*
X53340000Y-2540000D02*
X54705000Y-3905000D01*
D24*
X78740000Y-48260000D02*
X78740000Y-45720000D01*
D25*
X61782000Y-12760000D02*
X75565000Y-12760000D01*
X79865000Y-44595000D02*
X79865000Y-17145000D01*
X78740000Y-45720000D02*
X79865000Y-44595000D01*
%TO.N,HALT_SW*%
X75996396Y-11860000D02*
X80765000Y-16628604D01*
X85725000Y-63500000D02*
X87630000Y-63500000D01*
X57055000Y-6760208D02*
X57055000Y-3715000D01*
X83635000Y-61410000D02*
X85725000Y-63500000D01*
X80765000Y-39183604D02*
X83635000Y-42053604D01*
X62154792Y-11860000D02*
X57055000Y-6760208D01*
X83635000Y-42053604D02*
X83635000Y-61410000D01*
X80765000Y-16628604D02*
X80765000Y-39183604D01*
X62154792Y-11860000D02*
X75996396Y-11860000D01*
X55880000Y-2540000D02*
X57055000Y-3715000D01*
%TO.N,INIT_SW*%
X81280000Y-16507208D02*
X81280000Y-39062208D01*
X58420000Y-7488812D02*
X62295594Y-11364406D01*
X58420000Y-5080000D02*
X58420000Y-7488812D01*
X76137198Y-11364406D02*
X81280000Y-16507208D01*
X62295594Y-11364406D02*
X76137198Y-11364406D01*
X84085000Y-41867208D02*
X84085000Y-59320000D01*
X81280000Y-39062208D02*
X84085000Y-41867208D01*
X84085000Y-59320000D02*
X85725000Y-60960000D01*
X85725000Y-60960000D02*
X87630000Y-60960000D01*
D28*
%TO.N,+5V*%
X45720000Y-86360000D02*
X45720000Y-71120000D01*
X43180000Y-35560000D02*
X43180000Y-48260000D01*
X43180000Y-63500000D02*
X43180000Y-58420000D01*
D27*
X3850000Y-27760001D02*
X4300001Y-27310000D01*
X53340000Y-58420000D02*
X43180000Y-58420000D01*
D29*
X5080000Y-24765000D02*
X3350000Y-26495000D01*
D27*
X3850000Y-28759999D02*
X3850000Y-27760001D01*
X40640000Y-71120000D02*
X45720000Y-71120000D01*
X76200000Y-71120000D02*
X81280000Y-66040000D01*
X5080000Y-29210000D02*
X4300001Y-29210000D01*
D28*
X45720000Y-71120000D02*
X45720000Y-66040000D01*
D27*
X73660000Y-71120000D02*
X76200000Y-71120000D01*
D29*
X3350000Y-26495000D02*
X3350000Y-28887816D01*
D27*
X81280000Y-66040000D02*
X81280000Y-58420000D01*
D28*
X45720000Y-66040000D02*
X43180000Y-63500000D01*
D27*
X4300001Y-29210000D02*
X3850000Y-28759999D01*
D28*
X43180000Y-58420000D02*
X43180000Y-48260000D01*
D27*
X4300001Y-27310000D02*
X5080000Y-27310000D01*
%TO.N,+3.3V*%
X66040000Y-19090000D02*
X63500000Y-21630000D01*
X12700000Y-18173700D02*
X12700000Y-19050000D01*
X30480000Y-19090000D02*
X27940000Y-21630000D01*
X48260000Y-18173700D02*
X48260000Y-19130000D01*
X12700000Y-19050000D02*
X10160000Y-21590000D01*
D24*
X10080000Y-28830001D02*
X8559999Y-27310000D01*
X7780000Y-27310000D02*
X8559999Y-27310000D01*
X10080000Y-31750000D02*
X10080000Y-28830001D01*
D27*
X48260000Y-19130000D02*
X45720000Y-21670000D01*
D24*
X7780000Y-27310000D02*
X9061321Y-27310000D01*
D27*
X66040000Y-18173700D02*
X66040000Y-19090000D01*
X30480000Y-18173700D02*
X30480000Y-19090000D01*
D25*
%TO.N,GPIO_TX*%
X59756292Y-3876292D02*
X59756292Y-8188708D01*
X59756292Y-8188708D02*
X62362584Y-10795000D01*
X81730000Y-38875812D02*
X81730000Y-16320812D01*
X76204188Y-10795000D02*
X81730000Y-16320812D01*
X58420000Y-2540000D02*
X59756292Y-3876292D01*
X88900000Y-40640000D02*
X83494188Y-40640000D01*
X62362584Y-10795000D02*
X76204188Y-10795000D01*
X83494188Y-40640000D02*
X81730000Y-38875812D01*
%TO.N,GPIO_RX*%
X88900000Y-38100000D02*
X84455000Y-38100000D01*
X83185000Y-36830000D02*
X83185000Y-32385000D01*
X84455000Y-38100000D02*
X83185000Y-36830000D01*
X73025000Y-32385000D02*
X71120000Y-30480000D01*
X71120000Y-27546300D02*
X71120000Y-30480000D01*
%TO.N,DAL14_L*%
X39370000Y-18173700D02*
X39370000Y-16510000D01*
X35560000Y-12700000D02*
X35560000Y-5080000D01*
X39370000Y-16510000D02*
X35560000Y-12700000D01*
%TO.N,DAL9_L*%
X29115000Y-3715000D02*
X27940000Y-2540000D01*
X29115000Y-12700000D02*
X29115000Y-3715000D01*
X33020000Y-16605000D02*
X29115000Y-12700000D01*
X33020000Y-18173700D02*
X33020000Y-16605000D01*
%TO.N,AIO1_L*%
X12700000Y-2540000D02*
X13875000Y-3715000D01*
X19050000Y-13970000D02*
X19050000Y-18173700D01*
X13875000Y-8795000D02*
X19050000Y-13970000D01*
X13875000Y-3715000D02*
X13875000Y-8795000D01*
%TO.N,AIO3_L*%
X18955000Y-3715000D02*
X18955000Y-8795000D01*
X18955000Y-8795000D02*
X24130000Y-13970000D01*
X17780000Y-2540000D02*
X18955000Y-3715000D01*
X24130000Y-13970000D02*
X24130000Y-18173700D01*
%TO.N,ABORT_n_L*%
X44450000Y-3810000D02*
X43180000Y-2540000D01*
X55880000Y-18173700D02*
X55880000Y-16901701D01*
X55880000Y-16901701D02*
X44450000Y-5471701D01*
X44450000Y-5471701D02*
X44450000Y-3810000D01*
%TO.N,SCTL_n_L*%
X69850000Y-17462500D02*
X67627500Y-15240000D01*
X49435000Y-5376701D02*
X49435000Y-3715000D01*
X59298299Y-15240000D02*
X49435000Y-5376701D01*
X67627500Y-15240000D02*
X59298299Y-15240000D01*
X49435000Y-3715000D02*
X48260000Y-2540000D01*
%TO.N,AIO0_L*%
X11335000Y-8795000D02*
X16510000Y-13970000D01*
X11335000Y-3715000D02*
X11335000Y-8795000D01*
X10160000Y-2540000D02*
X11335000Y-3715000D01*
X16510000Y-13970000D02*
X16510000Y-18173700D01*
%TO.N,DAL16_L*%
X60325000Y-14605000D02*
X68262500Y-14605000D01*
X50800000Y-5080000D02*
X60325000Y-14605000D01*
X71120000Y-17462500D02*
X68262500Y-14605000D01*
%TO.N,DAL7_L*%
X12700000Y-8890000D02*
X17780000Y-13970000D01*
X12700000Y-5080000D02*
X12700000Y-8890000D01*
X17780000Y-13970000D02*
X17780000Y-18173700D01*
%TO.N,DAL0_L*%
X22860000Y-13970000D02*
X22860000Y-18173700D01*
X17780000Y-8890000D02*
X22860000Y-13970000D01*
X17780000Y-5080000D02*
X17780000Y-8890000D01*
%TO.N,DAL10_L*%
X34290000Y-16510000D02*
X30480000Y-12700000D01*
X34290000Y-18173700D02*
X34290000Y-16510000D01*
X30480000Y-12700000D02*
X30480000Y-5080000D01*
%TO.N,DAL12_L*%
X33020000Y-12700000D02*
X33020000Y-5080000D01*
X36830000Y-18173700D02*
X36830000Y-16510000D01*
X36830000Y-16510000D02*
X33020000Y-12700000D01*
%TO.N,DAL4_L*%
X41815000Y-3715000D02*
X41815000Y-5618604D01*
X40640000Y-2540000D02*
X41815000Y-3715000D01*
X41815000Y-5618604D02*
X53340000Y-17143604D01*
X53340000Y-17143604D02*
X53340000Y-18173700D01*
%TO.N,DAL5_L*%
X54610000Y-16510000D02*
X43180000Y-5080000D01*
X54610000Y-18173700D02*
X54610000Y-16510000D01*
%TO.N,DAL1_L*%
X38100000Y-12700000D02*
X38100000Y-5080000D01*
X41910000Y-16510000D02*
X38100000Y-12700000D01*
X41910000Y-18173700D02*
X41910000Y-16510000D01*
%TO.N,DAL2_L*%
X39275000Y-5937500D02*
X39275000Y-3715000D01*
X39275000Y-3715000D02*
X38100000Y-2540000D01*
X50800000Y-17462500D02*
X39275000Y-5937500D01*
%TO.N,DAL3_L*%
X52070000Y-18173700D02*
X52070000Y-16510000D01*
X52070000Y-16510000D02*
X40640000Y-5080000D01*
D27*
%TO.N,CLK2_L*%
X77470000Y-16002000D02*
X77470000Y-18173700D01*
X61603827Y-13395000D02*
X74863000Y-13395000D01*
X74863000Y-13395000D02*
X77470000Y-16002000D01*
X53340000Y-5131173D02*
X61603827Y-13395000D01*
D25*
%TO.N,DAL8_L*%
X15240000Y-8890000D02*
X20320000Y-13970000D01*
X20320000Y-13970000D02*
X20320000Y-18173700D01*
X15240000Y-5080000D02*
X15240000Y-8890000D01*
%TO.N,DAL13_L*%
X38100000Y-16510000D02*
X34290000Y-12700000D01*
X38100000Y-18173700D02*
X38100000Y-16510000D01*
X34290000Y-3810000D02*
X33020000Y-2540000D01*
X34290000Y-12700000D02*
X34290000Y-3810000D01*
%TO.N,DAL17_L*%
X66992500Y-15875000D02*
X59055000Y-15875000D01*
X48260000Y-5080000D02*
X59055000Y-15875000D01*
X68580000Y-17462500D02*
X66992500Y-15875000D01*
%TO.N,AIO2_L*%
X16415000Y-3715000D02*
X16415000Y-8795000D01*
X15240000Y-2540000D02*
X16415000Y-3715000D01*
X16415000Y-8795000D02*
X21590000Y-13970000D01*
X21590000Y-13970000D02*
X21590000Y-18173700D01*
D26*
%TO.N,ALE_n_L*%
X45720000Y-2540000D02*
X46970000Y-3790000D01*
X46970000Y-3790000D02*
X46970000Y-5587538D01*
X46970000Y-5587538D02*
X58420000Y-17037538D01*
X58420000Y-17037538D02*
X58420000Y-18173700D01*
D25*
%TO.N,BUFCTL_n_L*%
X45720000Y-5080000D02*
X57150000Y-16510000D01*
X57150000Y-16510000D02*
X57150000Y-18173700D01*
%TO.N,GPIO_RX_L*%
X72390000Y-17462500D02*
X68897500Y-13970000D01*
X68897500Y-13970000D02*
X60568299Y-13970000D01*
X52070000Y-5471701D02*
X52070000Y-3810000D01*
X60568299Y-13970000D02*
X52070000Y-5471701D01*
X52070000Y-3810000D02*
X50800000Y-2540000D01*
%TO.N,DAL6_L*%
X10160000Y-5080000D02*
X10160000Y-8890000D01*
X15240000Y-13970000D02*
X15240000Y-18173700D01*
X10160000Y-8890000D02*
X15240000Y-13970000D01*
%TO.N,DAL11_L*%
X31655000Y-3715000D02*
X30480000Y-2540000D01*
X35560000Y-16605000D02*
X31655000Y-12700000D01*
X35560000Y-18173700D02*
X35560000Y-16605000D01*
X31655000Y-12700000D02*
X31655000Y-3715000D01*
%TO.N,DAL15_L*%
X36830000Y-12700000D02*
X36830000Y-3810000D01*
X40640000Y-16510000D02*
X36830000Y-12700000D01*
X40640000Y-18173700D02*
X40640000Y-16510000D01*
X36830000Y-3810000D02*
X35560000Y-2540000D01*
D27*
%TO.N,Net-(U5-A8)*%
X77608630Y-30480000D02*
X76200000Y-29071370D01*
X78740000Y-30480000D02*
X77608630Y-30480000D01*
X76200000Y-29071370D02*
X76200000Y-27546300D01*
D25*
%TO.N,BS1_L*%
X88170000Y-24035000D02*
X86270000Y-22135000D01*
X74930000Y-18173700D02*
X74930000Y-15875000D01*
X91440000Y-22860000D02*
X90265000Y-24035000D01*
X86270000Y-22135000D02*
X86270000Y-15992257D01*
X90265000Y-24035000D02*
X88170000Y-24035000D01*
%TO.N,BS0_L*%
X86995000Y-14605000D02*
X86995000Y-20955000D01*
X73660000Y-18173700D02*
X73660000Y-14605000D01*
X86995000Y-20955000D02*
X88900000Y-22860000D01*
%TO.N,MAP_n_L*%
X87697919Y-25400000D02*
X85344000Y-23046081D01*
X85344000Y-23046081D02*
X85344000Y-16764000D01*
X88900000Y-25400000D02*
X87697919Y-25400000D01*
X76200000Y-18173700D02*
X76200000Y-16510000D01*
%TO.N,STRB_n_L*%
X61595000Y-26035000D02*
X61595000Y-22225000D01*
X59690000Y-20320000D02*
X59690000Y-18173700D01*
X90170000Y-26670000D02*
X82550000Y-26670000D01*
X91440000Y-25400000D02*
X90170000Y-26670000D01*
X61595000Y-22225000D02*
X59690000Y-20320000D01*
%TD*%
M02*
