%TF.GenerationSoftware,KiCad,Pcbnew,8.0.5*%
%TF.CreationDate,2025-08-25T13:08:50+09:00*%
%TF.ProjectId,TangConsoleDCJ11MEM,54616e67-436f-46e7-936f-6c6544434a31,rev?*%
%TF.SameCoordinates,Original*%
%TF.FileFunction,Paste,Top*%
%TF.FilePolarity,Positive*%
%FSLAX46Y46*%
G04 Gerber Fmt 4.6, Leading zero omitted, Abs format (unit mm)*
G04 Created by KiCad (PCBNEW 8.0.5) date 2025-08-25 13:08:50*
%MOMM*%
%LPD*%
G01*
G04 APERTURE LIST*
G04 Aperture macros list*
%AMRoundRect*
0 Rectangle with rounded corners*
0 $1 Rounding radius*
0 $2 $3 $4 $5 $6 $7 $8 $9 X,Y pos of 4 corners*
0 Add a 4 corners polygon primitive as box body*
4,1,4,$2,$3,$4,$5,$6,$7,$8,$9,$2,$3,0*
0 Add four circle primitives for the rounded corners*
1,1,$1+$1,$2,$3*
1,1,$1+$1,$4,$5*
1,1,$1+$1,$6,$7*
1,1,$1+$1,$8,$9*
0 Add four rect primitives between the rounded corners*
20,1,$1+$1,$2,$3,$4,$5,0*
20,1,$1+$1,$4,$5,$6,$7,0*
20,1,$1+$1,$6,$7,$8,$9,0*
20,1,$1+$1,$8,$9,$2,$3,0*%
G04 Aperture macros list end*
%ADD10R,0.558800X1.981200*%
%ADD11RoundRect,0.162500X-0.617500X-0.162500X0.617500X-0.162500X0.617500X0.162500X-0.617500X0.162500X0*%
G04 APERTURE END LIST*
D10*
%TO.C,U5*%
X66040000Y-27546300D03*
X67310000Y-27546300D03*
X68580000Y-27546300D03*
X69850000Y-27546300D03*
X71120000Y-27546300D03*
X72390000Y-27546300D03*
X73660000Y-27546300D03*
X74930000Y-27546300D03*
X76200000Y-27546300D03*
X77470000Y-27546300D03*
X77470000Y-18173700D03*
X76200000Y-18173700D03*
X74930000Y-18173700D03*
X73660000Y-18173700D03*
X72390000Y-18173700D03*
X71120000Y-18173700D03*
X69850000Y-18173700D03*
X68580000Y-18173700D03*
X67310000Y-18173700D03*
X66040000Y-18173700D03*
%TD*%
D11*
%TO.C,U6*%
X5080000Y-27310000D03*
X5080000Y-28260000D03*
X5080000Y-29210000D03*
X7780000Y-29210000D03*
X7780000Y-27310000D03*
%TD*%
D10*
%TO.C,U3*%
X30480000Y-27546300D03*
X31750000Y-27546300D03*
X33020000Y-27546300D03*
X34290000Y-27546300D03*
X35560000Y-27546300D03*
X36830000Y-27546300D03*
X38100000Y-27546300D03*
X39370000Y-27546300D03*
X40640000Y-27546300D03*
X41910000Y-27546300D03*
X41910000Y-18173700D03*
X40640000Y-18173700D03*
X39370000Y-18173700D03*
X38100000Y-18173700D03*
X36830000Y-18173700D03*
X35560000Y-18173700D03*
X34290000Y-18173700D03*
X33020000Y-18173700D03*
X31750000Y-18173700D03*
X30480000Y-18173700D03*
%TD*%
%TO.C,U4*%
X48260000Y-27546300D03*
X49530000Y-27546300D03*
X50800000Y-27546300D03*
X52070000Y-27546300D03*
X53340000Y-27546300D03*
X54610000Y-27546300D03*
X55880000Y-27546300D03*
X57150000Y-27546300D03*
X58420000Y-27546300D03*
X59690000Y-27546300D03*
X59690000Y-18173700D03*
X58420000Y-18173700D03*
X57150000Y-18173700D03*
X55880000Y-18173700D03*
X54610000Y-18173700D03*
X53340000Y-18173700D03*
X52070000Y-18173700D03*
X50800000Y-18173700D03*
X49530000Y-18173700D03*
X48260000Y-18173700D03*
%TD*%
%TO.C,U2*%
X12700000Y-27546300D03*
X13970000Y-27546300D03*
X15240000Y-27546300D03*
X16510000Y-27546300D03*
X17780000Y-27546300D03*
X19050000Y-27546300D03*
X20320000Y-27546300D03*
X21590000Y-27546300D03*
X22860000Y-27546300D03*
X24130000Y-27546300D03*
X24130000Y-18173700D03*
X22860000Y-18173700D03*
X21590000Y-18173700D03*
X20320000Y-18173700D03*
X19050000Y-18173700D03*
X17780000Y-18173700D03*
X16510000Y-18173700D03*
X15240000Y-18173700D03*
X13970000Y-18173700D03*
X12700000Y-18173700D03*
%TD*%
M02*
