M48
; DRILL file {KiCad 8.0.5} date 2025-08-25T13:08:54+0900
; FORMAT={-:-/ absolute / inch / decimal}
; #@! TF.CreationDate,2025-08-25T13:08:54+09:00
; #@! TF.GenerationSoftware,Kicad,Pcbnew,8.0.5
; #@! TF.FileFunction,Plated,1,2,PTH
FMAT,2
INCH
; #@! TA.AperFunction,Plated,PTH,ViaDrill
T1C0.0157
; #@! TA.AperFunction,Plated,PTH,ComponentDrill
T2C0.0315
; #@! TA.AperFunction,Plated,PTH,ComponentDrill
T3C0.0354
; #@! TA.AperFunction,Plated,PTH,ComponentDrill
T4C0.0394
; #@! TA.AperFunction,Plated,PTH,ComponentDrill
T5C0.0433
%
G90
G05
T1
X0.55Y-0.9484
X0.7Y-1.475
X0.8Y-1.5035
X0.9Y-1.5321
X0.95Y-0.9484
X1.0Y-1.5606
X1.1Y-1.5892
X1.25Y-0.9484
X1.25Y-1.475
X1.3Y-1.475
X1.35Y-1.475
X1.4Y-1.475
X1.45Y-1.475
X1.65Y-0.9484
X1.9Y-2.8
X1.95Y-0.9484
X2.0Y-2.85
X2.1Y-2.9
X2.35Y-0.9484
X2.425Y-1.025
X2.65Y-0.95
X2.725Y-2.8
X2.725Y-2.85
X2.725Y-2.9
X2.875Y-1.275
X2.9Y-0.575
X2.95Y-0.625
X3.0Y-0.65
X3.05Y-0.95
X3.1Y-2.075
X3.25Y-1.05
X3.275Y-1.275
X3.36Y-0.66
X3.3965Y-0.6296
X3.425Y-0.575
X3.475Y-0.725
X3.5085Y-0.725
T2
X0.2Y-0.975
X0.2Y-1.25
X0.2984Y-0.975
X0.3Y-1.9
X0.3Y-2.8
X0.3Y-3.1
X0.3Y-3.2
X0.3969Y-1.25
X0.4Y-0.85
X0.4Y-0.9484
X0.4Y-1.9
X0.4Y-3.2
X0.5Y-1.9
X0.5Y-3.2
X0.6Y-1.9
X0.6Y-3.2
X0.7Y-1.9
X0.7Y-3.2
X0.8Y-1.9
X0.8Y-2.8
X0.8Y-3.1
X0.8Y-3.2
X0.9Y-1.9
X0.9Y-2.8
X0.9Y-3.1
X0.9Y-3.2
X1.0Y-1.9
X1.0Y-3.2
X1.1Y-0.85
X1.1Y-0.9484
X1.1Y-1.9
X1.1Y-3.2
X1.2Y-1.9
X1.2Y-3.2
X1.3Y-1.9
X1.3Y-3.2
X1.4Y-1.9
X1.4Y-3.2
X1.5Y-1.9
X1.5Y-2.8
X1.5Y-3.1
X1.5Y-3.2
X1.6Y-1.9
X1.6Y-2.8
X1.6Y-3.1
X1.6Y-3.2
X1.7Y-1.4
X1.7Y-1.7
X1.7Y-1.9
X1.7Y-3.2
X1.7016Y-3.4
X1.7984Y-1.4
X1.7984Y-1.7
X1.8Y-0.85
X1.8Y-0.9484
X1.8Y-1.9
X1.8Y-3.2
X1.8Y-3.4
X1.9Y-1.9
X1.9Y-3.2
X2.0Y-1.9
X2.0Y-3.2
X2.1Y-1.9
X2.1Y-2.0
X2.1Y-2.3
X2.1Y-3.2
X2.2Y-1.9
X2.2Y-3.2
X2.3Y-1.9
X2.3Y-3.2
X2.35Y-1.4016
X2.35Y-1.5
X2.4Y-1.9
X2.4Y-3.2
X2.5Y-0.85
X2.5Y-0.9484
X2.5Y-1.65
X2.5Y-1.9
X2.5Y-3.2
X2.55Y-1.475
X2.6Y-1.9
X2.6Y-3.2
X2.7Y-1.9
X2.7Y-3.2
X2.7421Y-1.475
X2.8Y-1.65
X2.8Y-1.9
X2.8Y-3.2
X2.9Y-1.9
X2.9Y-2.8
X2.9Y-3.1
X2.9Y-3.2
X2.95Y-1.4016
X2.95Y-1.5
X3.0Y-1.9
X3.0Y-2.8
X3.0Y-3.1
X3.0Y-3.2
X3.1Y-1.2
X3.1Y-1.5
X3.1Y-1.9
X3.1Y-3.2
X3.2Y-1.9
X3.2Y-2.0
X3.2Y-2.3
X3.2Y-3.2
X3.45Y-2.3
X3.45Y-2.4
X3.45Y-2.5
X3.75Y-2.3
X3.75Y-2.4
X3.75Y-2.5
T3
X3.45Y-2.1
X3.55Y-2.1
T4
X0.3Y-1.8
X0.3Y-3.3
X0.4Y-0.1
X0.4Y-0.2
X0.4Y-1.8
X0.4Y-3.3
X0.5Y-0.1
X0.5Y-0.2
X0.5Y-1.8
X0.5Y-3.3
X0.6Y-0.1
X0.6Y-0.2
X0.6Y-1.8
X0.6Y-3.3
X0.7Y-0.1
X0.7Y-0.2
X0.7Y-1.8
X0.7Y-3.3
X0.8Y-0.1
X0.8Y-0.2
X0.8Y-1.8
X0.8Y-3.3
X0.9Y-0.1
X0.9Y-0.2
X0.9Y-1.8
X0.9Y-3.3
X1.0Y-0.1
X1.0Y-0.2
X1.0Y-1.8
X1.0Y-3.3
X1.1Y-0.1
X1.1Y-0.2
X1.1Y-1.8
X1.1Y-3.3
X1.2Y-0.1
X1.2Y-0.2
X1.2Y-1.8
X1.2Y-3.3
X1.3Y-0.1
X1.3Y-0.2
X1.3Y-1.8
X1.3Y-3.3
X1.4Y-0.1
X1.4Y-0.2
X1.4Y-1.8
X1.4Y-3.3
X1.5Y-0.1
X1.5Y-0.2
X1.5Y-1.8
X1.5Y-3.3
X1.6Y-0.1
X1.6Y-0.2
X1.6Y-1.8
X1.6Y-3.3
X1.7Y-0.1
X1.7Y-0.2
X1.7Y-1.8
X1.7Y-3.3
X1.8Y-0.1
X1.8Y-0.2
X1.8Y-1.8
X1.8Y-3.3
X1.9Y-0.1
X1.9Y-0.2
X1.9Y-1.8
X1.9Y-3.3
X2.0Y-0.1
X2.0Y-0.2
X2.0Y-1.8
X2.0Y-3.3
X2.1Y-0.1
X2.1Y-0.2
X2.1Y-1.8
X2.1Y-3.3
X2.2Y-0.1
X2.2Y-0.2
X2.2Y-1.8
X2.2Y-3.3
X2.3Y-0.1
X2.3Y-0.2
X2.3Y-1.8
X2.3Y-3.3
X2.4Y-1.8
X2.4Y-3.3
X2.5Y-1.8
X2.5Y-3.3
X2.6Y-1.8
X2.6Y-3.3
X2.7Y-1.8
X2.7Y-3.3
X2.8Y-1.8
X2.8Y-3.3
X2.9Y-1.8
X2.9Y-3.3
X3.0Y-1.8
X3.0Y-3.3
X3.1Y-1.8
X3.1Y-3.3
X3.2Y-1.8
X3.2Y-3.3
X3.5Y-0.8
X3.5Y-0.9
X3.5Y-1.0
X3.5Y-1.2
X3.5Y-1.3
X3.5Y-1.4
X3.5Y-1.5
X3.5Y-1.6
X3.5Y-1.7
X3.6Y-0.8
X3.6Y-0.9
X3.6Y-1.0
T5
X3.45Y-2.7
X3.45Y-2.8772
X3.45Y-3.2
X3.45Y-3.3772
X3.7059Y-2.7
X3.7059Y-2.8772
X3.7059Y-3.2
X3.7059Y-3.3772
M30
